<?xml version="1.0" encoding="UTF-8"?>
<svg version="1.1" xmlns="http://www.w3.org/2000/svg" width="762" height="197">
<path d="M0 0 C1.08711273 -0.00671722 2.17422546 -0.01343445 3.29428101 -0.02035522 C6.87681692 -0.03930384 10.45916518 -0.04325786 14.04174805 -0.04541016 C16.5412758 -0.05184018 19.0408028 -0.0585687 21.54032898 -0.06558228 C26.77641001 -0.07754715 32.01244373 -0.08134979 37.24853516 -0.08007812 C42.6132392 -0.07901033 47.97765512 -0.09308878 53.34228516 -0.12109375 C59.83431413 -0.15449612 66.32608457 -0.16818736 72.81819725 -0.16685867 C75.28564098 -0.16921209 77.75308763 -0.17802092 80.22048378 -0.19352341 C83.67853798 -0.21321628 87.13567971 -0.20733153 90.59375 -0.1953125 C91.60343338 -0.20655151 92.61311676 -0.21779053 93.65339661 -0.22937012 C103.38489178 -0.14383499 111.18809555 2.73896648 118.29956055 9.41943359 C122.43974149 13.999449 125.10123583 19.14410505 125.13813782 25.38711548 C125.14887077 26.63591492 125.14887077 26.63591492 125.15982056 27.90994263 C125.16250946 28.82009125 125.16519836 29.73023987 125.16796875 30.66796875 C125.17453995 31.62930725 125.18111115 32.59064575 125.18788147 33.58111572 C125.2076187 36.76810788 125.21927954 39.95505286 125.22924805 43.14208984 C125.23332357 44.2313615 125.2373991 45.32063316 125.24159813 46.44291306 C125.26246307 52.21096355 125.27676162 57.97899024 125.28613281 63.74707031 C125.29718359 69.69542906 125.33156724 75.64341233 125.37130451 81.59163857 C125.39749611 86.1728483 125.40582705 90.75396903 125.40941429 95.33524704 C125.41427552 97.52721053 125.42587621 99.71917017 125.44445229 101.91106033 C125.46889181 104.98657881 125.46786938 108.06113218 125.4609375 111.13671875 C125.48015259 112.4837236 125.48015259 112.4837236 125.49975586 113.85794067 C125.43822614 121.38500154 123.35015968 128.6601726 117.8659668 134.10302734 C110.24629136 141.18078621 100.39219205 142.46781637 90.41210938 142.32470703 C89.55937439 142.31682159 88.7066394 142.30893616 87.82806396 142.30081177 C85.98053404 142.28364726 84.13302216 142.2644443 82.285532 142.24343109 C78.34744504 142.20129575 74.40931726 142.1778779 70.47108746 142.15340042 C63.14571996 142.10774102 55.82061448 142.05490619 48.49560547 141.96826172 C43.39347418 141.90863329 38.29168377 141.87383394 33.18924522 141.85507965 C31.25204565 141.84338712 29.31487747 141.82265357 27.37787819 141.79244232 C12.92541003 141.4142944 12.92541003 141.4142944 -0.0090332 147.29052734 C-1.29875778 148.10144197 -2.58902509 148.91149487 -3.88012695 149.72021484 C-5.07247173 150.53012789 -6.26127612 151.34527686 -7.4465332 152.16552734 C-8.73527237 153.03579801 -10.02433757 153.90558606 -11.3137207 154.77490234 C-13.61696624 156.33896676 -15.91219748 157.91324696 -18.2043457 159.49365234 C-19.15051758 160.12787109 -20.09668945 160.76208984 -21.0715332 161.41552734 C-21.88750977 161.97498047 -22.70348633 162.53443359 -23.54418945 163.11083984 C-26.61461222 164.58036072 -28.64357319 164.7197719 -32.0090332 164.29052734 C-33.66473484 163.11056519 -33.66473484 163.11056519 -35.0090332 161.29052734 C-35.38934994 158.81253052 -35.38934994 158.81253052 -35.39671326 155.80273438 C-35.40661789 154.66176804 -35.41652252 153.5208017 -35.42672729 152.34526062 C-35.42222565 151.09227676 -35.417724 149.83929291 -35.41308594 148.54833984 C-35.41994919 147.22933182 -35.42681244 145.91032379 -35.43388367 144.55134583 C-35.45185906 140.92892943 -35.45063703 137.30675474 -35.44494128 133.6843071 C-35.44185173 130.65556056 -35.44794019 127.6268606 -35.45398003 124.59812069 C-35.46804175 117.44395522 -35.466454 110.28990908 -35.45507812 103.13574219 C-35.44363105 95.77456596 -35.45761094 88.41375551 -35.4844746 81.05262756 C-35.50670582 74.72206061 -35.51325129 68.39160782 -35.50739819 62.06100464 C-35.50404071 58.28514871 -35.50636078 54.50952646 -35.52364922 50.73370361 C-35.539232 47.17456036 -35.53503917 43.61595242 -35.51634407 40.05682945 C-35.51095816 38.14455177 -35.52509121 36.23224943 -35.54003906 34.32002258 C-35.46551716 25.50297163 -33.89040649 18.09281616 -29.3215332 10.47802734 C-20.35625889 1.99736245 -12.00083432 -0.0107085 0 0 Z M71.5534668 41.79052734 C71.07538574 42.3407959 70.59730469 42.89106445 70.10473633 43.45800781 C68.71902794 45.05711809 67.35457546 46.67258033 65.9909668 48.29052734 C64.78523846 49.66781222 63.57733888 51.04320372 62.3659668 52.41552734 C61.82327148 53.03943359 61.28057617 53.66333984 60.72143555 54.30615234 C54.79143307 61.10624548 48.71702547 67.66852172 42.25268555 73.96630859 C39.9876903 76.29389438 37.97684229 78.72297664 35.9909668 81.29052734 C32.12925091 80.71744165 30.19103678 78.97104822 27.3659668 76.35302734 C26.49456055 75.54994141 25.6231543 74.74685547 24.7253418 73.91943359 C21.12560239 70.45854128 17.6519661 66.88389469 14.2175293 63.25927734 C12.00408046 61.30212258 10.91353255 60.47694615 7.9909668 60.29052734 C3.26522973 62.75184873 0.41448461 65.54043243 -2.0090332 70.29052734 C-1.70692866 74.43726207 -0.49231148 76.26299415 2.5612793 78.99755859 C3.2934668 79.66722656 4.0256543 80.33689453 4.7800293 81.02685547 C5.93631836 82.05456055 5.93631836 82.05456055 7.1159668 83.10302734 C12.80349925 88.2267096 18.05252592 93.43878015 22.9909668 99.29052734 C24.32434727 100.80903446 25.67367623 102.31406355 27.0534668 103.79052734 C27.66319336 104.46083984 28.27291992 105.13115234 28.90112305 105.82177734 C31.78458274 107.84828359 33.51859914 107.65864568 36.9909668 107.29052734 C39.40713224 105.71195683 39.40713224 105.71195683 41.48706055 103.41552734 C42.29336914 102.59439453 43.09967773 101.77326172 43.93041992 100.92724609 C44.75477539 100.05712891 45.57913086 99.18701172 46.4284668 98.29052734 C47.65919922 97.03175781 47.65919922 97.03175781 48.91479492 95.74755859 C53.22664841 91.30837982 57.38959241 86.76567202 61.43359375 82.08203125 C63.68598152 79.49102616 66.02594548 76.99021239 68.3659668 74.47802734 C72.74251034 69.74507791 76.87746039 64.86320709 80.9128418 59.83349609 C83.39223745 56.79949878 86.00591621 53.90876443 88.6784668 51.04443359 C90.195462 49.01725845 90.86439014 47.83179711 90.9909668 45.29052734 C89.61784276 43.09200693 89.61784276 43.09200693 87.6159668 41.10302734 C86.96885742 40.40822266 86.32174805 39.71341797 85.6550293 38.99755859 C83.48497879 36.5449179 83.48497879 36.5449179 80.26831055 35.88427734 C75.90279848 36.42541352 74.2194879 38.56344089 71.5534668 41.79052734 Z " fill="#4087DB" transform="translate(56.009033203125,16.70947265625)"/>
<path d="M0 0 C5.94 0 11.88 0 18 0 C18 30.03 18 60.06 18 91 C12.39 91 6.78 91 1 91 C0.34 89.02 -0.32 87.04 -1 85 C-1.81404297 85.63228516 -1.81404297 85.63228516 -2.64453125 86.27734375 C-3.35996094 86.82519531 -4.07539062 87.37304688 -4.8125 87.9375 C-5.52019531 88.48277344 -6.22789062 89.02804688 -6.95703125 89.58984375 C-12.46660611 93.39281989 -19.60700461 92.49012965 -26 92 C-32.6648304 90.3337924 -37.31770258 85.63065226 -41 80 C-46.59765638 69.4982022 -46.53923936 56.04229795 -44.33984375 44.55078125 C-41.82065664 36.73148619 -37.15851213 30.3928229 -29.8125 26.5625 C-22.06975998 23.04593987 -15.02987016 23.37881901 -7.078125 25.953125 C-5 27 -5 27 -1 31 C-0.67 20.77 -0.34 10.54 0 0 Z M-25 45 C-28.35831331 51.43676718 -27.9103993 59.91125978 -27 67 C-25.57534748 71.09800447 -23.81540539 73.88311479 -20.1015625 76.16796875 C-16.42304443 77.62433371 -12.88460684 77.53952873 -9 77 C-4.05232521 74.61778621 -1.81660425 72.1629805 0 67 C1.49729687 59.78802009 1.79451066 51.56189986 -2.1796875 45.07421875 C-4.6447086 42.01846774 -6.45073629 40.17720337 -10.390625 39.7265625 C-17.14799737 39.48654654 -20.49299786 39.79961292 -25 45 Z " fill="#3F86D8" transform="translate(726,38)"/>
<path d="M0 0 C19.14 0 38.28 0 58 0 C58 4.95 58 9.9 58 15 C45.13 15.33 32.26 15.66 19 16 C19 21.94 19 27.88 19 34 C30.22 34 41.44 34 53 34 C53 38.95 53 43.9 53 49 C41.78 49.33 30.56 49.66 19 50 C19 56.27 19 62.54 19 69 C38.8 69.495 38.8 69.495 59 70 C59 75.28 59 80.56 59 86 C51.45501411 86.02255549 43.91004069 86.04091769 36.36502934 86.05181217 C32.86191115 86.05703989 29.35881715 86.0641355 25.85571289 86.07543945 C21.83219159 86.08834206 17.80869586 86.09322912 13.78515625 86.09765625 C12.52163834 86.10281754 11.25812042 86.10797882 9.95631409 86.11329651 C8.795186 86.11337204 7.63405792 86.11344757 6.43774414 86.11352539 C4.8955294 86.11685631 4.8955294 86.11685631 3.32215881 86.12025452 C1 86 1 86 0 85 C-0.09511266 82.35261911 -0.12555635 79.73140999 -0.11352539 77.08374023 C-0.11367142 76.25454071 -0.11381744 75.42534119 -0.1139679 74.5710144 C-0.11326851 71.81684802 -0.10547493 69.06274839 -0.09765625 66.30859375 C-0.09579216 64.40430234 -0.09436822 62.50001045 -0.09336853 60.59571838 C-0.08954263 55.57332037 -0.07971173 50.55095108 -0.06866455 45.52856445 C-0.05665775 39.50804488 -0.05204853 33.48751572 -0.04621124 27.46698761 C-0.03650001 18.31130507 -0.01734396 9.15568561 0 0 Z " fill="#4085D5" transform="translate(212,43)"/>
<path d="M0 0 C5.61 0 11.22 0 17 0 C20.98741668 9.30154237 24.46936359 18.70547314 27.8125 28.25 C28.31934895 29.6889122 28.82650864 31.12771498 29.33398438 32.56640625 C30.55956195 36.0430212 31.78097144 39.52108249 33 43 C34.63971719 40.54042421 35.48416981 38.92033278 36.38867188 36.20288086 C36.76916687 35.07172096 36.76916687 35.07172096 37.15734863 33.91770935 C37.55899231 32.70354088 37.55899231 32.70354088 37.96875 31.46484375 C38.54551211 29.75193265 39.12233692 28.03904266 39.69921875 26.32617188 C40.60290779 23.62520045 41.50463435 20.92358819 42.40478516 18.22143555 C43.27532278 15.61338073 44.15295036 13.00779288 45.03125 10.40234375 C45.43289368 9.18513893 45.43289368 9.18513893 45.84265137 7.94334412 C47.77385063 2.22614937 47.77385063 2.22614937 50 0 C52.74485593 -0.14507695 55.38480543 -0.18652423 58.125 -0.125 C58.87910156 -0.11597656 59.63320313 -0.10695312 60.41015625 -0.09765625 C62.27357254 -0.0740687 64.13682593 -0.03819719 66 0 C67.35819865 4.07459595 66.19913073 5.73512554 64.640625 9.7109375 C64.38037537 10.38306274 64.12012573 11.05518799 63.85198975 11.74768066 C62.9932022 13.96022104 62.12160303 16.16748039 61.25 18.375 C60.65265611 19.90732939 60.0563114 21.44004864 59.4609375 22.97314453 C58.547068 25.32548155 57.63234069 27.67745432 56.71398926 30.02804565 C54.73208291 35.10122524 52.78021091 40.1846435 50.859375 45.28125 C50.6148761 45.92969879 50.3703772 46.57814758 50.11846924 47.24624634 C48.97460104 50.28245218 47.83306051 53.31952781 46.69238281 56.35693359 C36.38782601 83.64195658 36.38782601 83.64195658 26 91 C21.39843925 92.89087123 17.45685707 93.27014983 12.5 93.25 C11.2315625 93.25515625 9.963125 93.2603125 8.65625 93.265625 C5.09609683 93.00698139 2.31254615 92.28821239 -1 91 C-0.69163768 88.87439563 -0.37818386 86.74952935 -0.0625 84.625 C0.11152344 83.44164062 0.28554688 82.25828125 0.46484375 81.0390625 C1 78 1 78 2 76 C2.86882812 76.10699219 3.73765625 76.21398437 4.6328125 76.32421875 C11.68798423 77.08557048 11.68798423 77.08557048 18.625 76 C21.65952455 73.4446109 23.22811741 70.85872273 24 67 C23.53638272 63.77408278 22.35698755 60.93548403 21.109375 57.9375 C20.77383102 57.07624512 20.43828705 56.21499023 20.09257507 55.32763672 C19.00117512 52.54213111 17.87595585 49.77169396 16.75 47 C15.99900278 45.09859483 15.25038843 43.19624678 14.50415039 41.29296875 C12.6872005 36.67354667 10.84479777 32.06490785 8.99029541 27.46044922 C7.17801486 22.95772789 5.38475544 18.44752903 3.60058594 13.93359375 C2.84426766 12.02596981 2.07848394 10.1220622 1.30175781 8.22265625 C0.47746604 6.1704372 -0.2713436 4.08808999 -1 2 C-0.67 1.34 -0.34 0.68 0 0 Z " fill="#4086D7" transform="translate(402,63)"/>
<path d="M0 0 C5.86327934 4.9304849 9.97024343 10.51493426 10.75 18.3125 C10.98704277 22.99151825 11.1667887 27.64201491 10.75 32.3125 C8.75 34.3125 8.75 34.3125 4.75927734 34.53955078 C3.03479831 34.53923337 1.31029967 34.52789124 -0.4140625 34.5078125 C-1.77487442 34.50356766 -1.77487442 34.50356766 -3.16317749 34.49923706 C-6.06725123 34.48802153 -8.97101912 34.46291463 -11.875 34.4375 C-13.84114139 34.42747197 -15.8072876 34.41834581 -17.7734375 34.41015625 C-22.59907659 34.38807772 -27.4244864 34.35353865 -32.25 34.3125 C-31.64591083 35.76242707 -31.03202774 37.20827616 -30.4140625 38.65234375 C-30.0732666 39.45792725 -29.7324707 40.26351074 -29.38134766 41.09350586 C-27.60791762 44.57186269 -25.81972166 45.792063 -22.25 47.3125 C-16.29165015 48.14705715 -11.32949191 47.78142131 -6.25 44.3125 C-4.39684743 42.26303601 -4.39684743 42.26303601 -3.25 40.3125 C1.90464734 40.79574819 5.56550319 43.49860761 9.75 46.3125 C9.327327 51.10279404 7.09879825 54.04472106 3.75 57.3125 C-5.34704694 64.28045085 -15.25958166 64.32848506 -26.25 63.3125 C-29.99290595 62.49620329 -32.98703735 61.30409717 -36.25 59.3125 C-36.89066406 58.92320313 -37.53132812 58.53390625 -38.19140625 58.1328125 C-44.35084568 53.63628869 -48.00257851 46.09177752 -49.8984375 38.828125 C-51.49178396 27.42684592 -50.20250431 16.7727983 -43.6953125 7.12890625 C-32.75277957 -6.62319595 -14.95650733 -7.76587881 0 0 Z M-27.25 12.3125 C-30.24884341 16.0215958 -31.25 17.4829783 -31.25 22.3125 C-23 22.3125 -14.75 22.3125 -6.25 22.3125 C-7.39576838 14.11044504 -7.39576838 14.11044504 -9.8125 11.3125 C-15.96690852 8.78761445 -21.66804027 8.28829648 -27.25 12.3125 Z " fill="#3F86D7" transform="translate(591.25,66.6875)"/>
<path d="M0 0 C5.22897621 4.24457381 7.7688297 10.04548658 9.5 16.4375 C10.21381579 27.85855263 10.21381579 27.85855263 8.6875 32.4375 C5.30356992 34.12946504 1.46272209 33.55736549 -2.2578125 33.53515625 C-3.1428244 33.5337413 -4.0278363 33.53232635 -4.93966675 33.53086853 C-7.77231191 33.5252614 -10.60487864 33.51270771 -13.4375 33.5 C-15.35546761 33.49498592 -17.27343646 33.49042285 -19.19140625 33.48632812 C-23.89846782 33.47528966 -28.6054706 33.45802025 -33.3125 33.4375 C-32.71012922 35.06348776 -32.09586857 36.68507436 -31.4765625 38.3046875 C-31.1357666 39.20815918 -30.7949707 40.11163086 -30.44384766 41.04248047 C-29.4152065 43.66869 -29.4152065 43.66869 -26.6875 45.5625 C-20.82216558 47.08314226 -15.60474506 47.27104366 -9.875 45.1875 C-7.36951339 43.47643598 -5.90346087 42.00071474 -4.3125 39.4375 C-0.81405614 40.07139235 1.52836876 41.48927694 4.4375 43.5 C5.23671875 44.04785156 6.0359375 44.59570312 6.859375 45.16015625 C7.46265625 45.58167969 8.0659375 46.00320312 8.6875 46.4375 C6.35174493 53.01597925 1.97297098 57.48990587 -4.125 60.875 C-12.57674562 64.22955883 -24.4408621 63.91798195 -32.9375 60.875 C-41.64388576 56.57425523 -46.91346864 50.51130903 -50.3125 41.4375 C-53.00589859 31.14733616 -52.48013262 18.79716497 -47.3125 9.4375 C-42.27158859 2.01013179 -35.33790605 -3.47335502 -26.4375 -5.28125 C-16.940294 -6.53823315 -8.10615145 -5.36861437 0 0 Z M-28.3125 11.4375 C-31.01661529 14.87245726 -32.24658681 17.17384723 -33.3125 21.4375 C-24.7325 21.4375 -16.1525 21.4375 -7.3125 21.4375 C-8.62938387 13.89172949 -8.62938387 13.89172949 -13.3125 9.4375 C-18.98163221 7.88253802 -23.4034389 7.89840944 -28.3125 11.4375 Z " fill="#3F86D8" transform="translate(662.3125,67.5625)"/>
<path d="M0 0 C3.63181236 2.77990576 5.44033719 5.72209884 7.14453125 9.8984375 C7.44644796 12.76469955 7.60867616 15.42517424 7.62109375 18.2890625 C7.63667328 19.07488708 7.65225281 19.86071167 7.66830444 20.67034912 C7.7155649 23.16303613 7.7435124 25.65544619 7.76953125 28.1484375 C7.80604678 30.65551723 7.84663317 33.16244074 7.8921814 35.66937256 C7.91936988 37.22514666 7.94073777 38.78103556 7.95571899 40.3369751 C7.93686055 44.24617822 7.93686055 44.24617822 9.14453125 47.8984375 C12.17387616 48.55616178 12.17387616 48.55616178 15.14453125 48.8984375 C16.24681821 53.30758533 16.22107661 57.38226151 16.14453125 61.8984375 C10.55646611 63.91965255 5.9589533 64.36523363 0.14453125 62.8984375 C-5.42068614 60.01644992 -5.42068614 60.01644992 -6.73046875 56.6484375 C-6.77171875 56.0709375 -6.81296875 55.4934375 -6.85546875 54.8984375 C-7.51546875 54.8984375 -8.17546875 54.8984375 -8.85546875 54.8984375 C-9.08234375 55.4759375 -9.30921875 56.0534375 -9.54296875 56.6484375 C-11.76595743 60.45927524 -14.71335867 62.51773414 -18.85546875 63.8984375 C-21.12310449 64.04491832 -23.39579241 64.1194001 -25.66796875 64.1484375 C-26.87066406 64.17421875 -28.07335937 64.2 -29.3125 64.2265625 C-35.74701702 63.63064251 -39.67142669 60.66359652 -43.85546875 55.8984375 C-46.80746658 50.84089283 -47.38105683 45.16532811 -46.45703125 39.421875 C-45.2060657 35.0214197 -43.61055259 31.69829474 -39.765625 28.94921875 C-32.56252002 24.9867745 -24.59525053 23.24190253 -16.60546875 21.609375 C-13.66756512 21.01062562 -13.66756512 21.01062562 -10.85546875 18.8984375 C-10.60525305 15.81477879 -10.60525305 15.81477879 -10.85546875 12.8984375 C-14.81244678 10.91994848 -19.54423265 11.4678957 -23.85546875 11.8984375 C-27.75500136 13.2004302 -30.90533414 15.17941671 -34.16796875 17.6484375 C-35.85546875 18.8984375 -35.85546875 18.8984375 -38.85546875 18.8984375 C-40.49609375 17.0703125 -40.49609375 17.0703125 -42.10546875 14.6484375 C-42.91757812 13.46507812 -42.91757812 13.46507812 -43.74609375 12.2578125 C-44.85546875 9.8984375 -44.85546875 9.8984375 -44.76171875 7.7890625 C-42.42126649 2.90639485 -36.49131289 0.56255355 -31.71875 -1.375 C-20.98208363 -4.95812416 -10.13818898 -6.01888272 0 0 Z M-18.29296875 33.7109375 C-18.97423828 33.87658203 -19.65550781 34.04222656 -20.35742188 34.21289062 C-25.33863953 35.43802257 -25.33863953 35.43802257 -28.85546875 38.8984375 C-29.61063331 44.62745302 -29.61063331 44.62745302 -26.91796875 49.4609375 C-22.64829388 51.4650706 -19.31050757 51.4399455 -14.85546875 49.8984375 C-12.09888676 47.77248865 -10.43350266 45.2323619 -9.04296875 42.0234375 C-8.74454678 38.64132189 -8.79889198 35.2930436 -8.85546875 31.8984375 C-12.10350548 31.8984375 -15.16654196 32.9021253 -18.29296875 33.7109375 Z " fill="#3F86D8" transform="translate(325.85546875,66.1015625)"/>
<path d="M0 0 C18.15 0 36.3 0 55 0 C55 4.95 55 9.9 55 15 C42.79 15 30.58 15 18 15 C18 21.93 18 28.86 18 36 C20.37058594 35.98839844 22.74117188 35.97679687 25.18359375 35.96484375 C27.47045762 35.95705304 29.75732004 35.95097636 32.04418945 35.94506836 C33.63794614 35.94002843 35.23169819 35.9331965 36.82543945 35.92456055 C39.11150253 35.91248001 41.39750467 35.90676845 43.68359375 35.90234375 C44.40026718 35.89718246 45.11694061 35.89202118 45.85533142 35.88670349 C47.57063672 35.88650737 49.28581266 35.93807993 51 36 C54.54338194 39.54338194 52 45.98890121 52 51 C40.78 51 29.56 51 18 51 C18 62.55 18 74.1 18 86 C12.06 86 6.12 86 0 86 C0 57.62 0 29.24 0 0 Z " fill="#3F86D8" transform="translate(480,43)"/>
<path d="M0 0 C2.5 1.9375 2.5 1.9375 4.5 3.9375 C4.18772096 7.44519248 2.60239529 9.29373606 0.1875 11.75 C-0.40675781 12.37519531 -1.00101562 13.00039062 -1.61328125 13.64453125 C-3.5 14.9375 -3.5 14.9375 -5.5859375 14.73046875 C-7.5 13.9375 -7.5 13.9375 -9.8125 12.4375 C-14.34662868 9.90682353 -18.48270747 9.47364454 -23.4375 10.875 C-24.448125 11.225625 -25.45875 11.57625 -26.5 11.9375 C-26.5 13.5875 -26.5 15.2375 -26.5 16.9375 C-20.49607175 19.67219248 -14.54766298 21.25785809 -8.12109375 22.77734375 C-2.15381254 24.68919113 2.02719075 27.72828613 5.5 32.9375 C8.09394283 38.24890675 7.93098421 43.30670414 6.5 48.9375 C3.78306267 54.96364821 0.41969338 58.6876898 -5.66796875 61.28125 C-14.78064962 64.5454939 -26.30432533 64.33305202 -35.3125 60.75 C-40.14957052 58.37836154 -43.99367249 56.07568232 -46.390625 51.08203125 C-46.5 48.9375 -46.5 48.9375 -44.62890625 46.578125 C-43.78199219 45.78921875 -42.93507813 45.0003125 -42.0625 44.1875 C-40.79599609 42.98867187 -40.79599609 42.98867187 -39.50390625 41.765625 C-38.84261719 41.16234375 -38.18132812 40.5590625 -37.5 39.9375 C-35.03626863 41.10179499 -33.23359731 42.16183911 -31.125 43.9375 C-26.21528661 47.67823401 -21.58918788 48.38855095 -15.5 47.9375 C-13.14630193 47.05685073 -13.14630193 47.05685073 -11.5 45.9375 C-11.5 43.9575 -11.5 41.9775 -11.5 39.9375 C-16.32777692 38.04425415 -21.14258175 36.44393106 -26.125 35 C-33.22005286 32.83457346 -38.43930927 30.4636101 -42.5 23.9375 C-44.73795781 17.91577846 -44.90033589 12.90043967 -42.5 6.9375 C-39.55150332 0.67194456 -34.72702425 -1.65420557 -28.5 -4.0625 C-18.80456573 -6.44883754 -8.49725719 -5.50671764 0 0 Z " fill="#4086D6" transform="translate(391.5,67.0625)"/>
<path d="M0 0 C1.125 3.75 1.125 3.75 0 6 C-0.0817132 7.85021644 -0.09719909 9.70349049 -0.08229065 11.55545044 C-0.07525116 12.73618134 -0.06821167 13.91691223 -0.06095886 15.13342285 C-0.04801285 16.43533569 -0.03506683 17.73724854 -0.02172852 19.07861328 C-0.01158835 20.45819796 -0.0018944 21.83778598 0.00738525 23.21737671 C0.0338926 26.96925063 0.06666668 30.72104709 0.10053515 34.47286081 C0.13485214 38.39129337 0.16344852 42.30976749 0.19264221 46.22824097 C0.24882089 53.65139737 0.31017157 61.07450174 0.37336355 68.49760139 C0.44504407 76.94727504 0.51098452 85.3969904 0.57643402 93.84671426 C0.71121903 111.23119732 0.85324112 128.61561398 1 146 C5.65460914 146.18653321 7.38687136 145.35915354 11.0625 142.4375 C15.95378138 138.70294056 20.97505931 135.5748529 26.32421875 132.54296875 C28.49726358 131.2898991 30.56586297 129.99036875 32.625 128.5625 C35 127 35 127 37 127 C37 126.34 37 125.68 37 125 C40.0276433 123.48617835 43.15901553 123.87015747 46.47900391 123.88647461 C47.6352401 123.88625557 47.6352401 123.88625557 48.81483459 123.8860321 C51.36877229 123.88673011 53.92263751 123.89451725 56.4765625 123.90234375 C58.24490316 123.90420833 60.01324433 123.90563204 61.78158569 123.90663147 C66.44064759 123.9104535 71.09967842 123.92028112 75.75872803 123.93133545 C80.51102274 123.94155631 85.26332247 123.94613054 90.015625 123.95117188 C99.34376367 123.96190366 108.67187925 123.97897633 118 124 C116.93019104 125.4836731 116.93019104 125.4836731 115 127 C111.93516541 127.32711792 111.93516541 127.32711792 108.11694336 127.26123047 C107.42055756 127.25363708 106.72417175 127.2460437 106.00668335 127.23822021 C104.49408366 127.22010998 102.98155352 127.19521646 101.46916008 127.16436386 C99.06755486 127.11674556 96.6665158 127.08968248 94.26454163 127.06838989 C87.43541201 127.00426809 80.60698586 126.90421206 73.77856445 126.78759766 C69.59951231 126.71766228 65.42076053 126.6727941 61.24124336 126.64242935 C59.65566474 126.62576285 58.07015445 126.59949169 56.48490715 126.5630455 C47.26153139 126.35209719 39.93330516 126.70352389 32 132 C31.31164566 132.43011383 30.62329132 132.86022766 29.91407776 133.30337524 C28.09664269 134.45004344 26.32944999 135.65219222 24.5625 136.875 C23.27376084 137.74527067 21.98469564 138.61505872 20.6953125 139.484375 C18.39206696 141.04843941 16.09683573 142.62271962 13.8046875 144.203125 C12.85851563 144.83734375 11.91234375 145.4715625 10.9375 146.125 C10.12152344 146.68445313 9.30554687 147.24390625 8.46484375 147.8203125 C5.39442098 149.28983338 3.36546001 149.42924456 0 149 C-1.65612221 147.82087898 -1.65612221 147.82087898 -3 146 C-3.37752342 143.51641655 -3.37752342 143.51641655 -3.38095093 140.49874878 C-3.3894104 139.35489212 -3.39786987 138.21103546 -3.40658569 137.03251648 C-3.400513 135.77639053 -3.39444031 134.52026459 -3.38818359 133.22607422 C-3.39224863 131.89049347 -3.39759014 130.55491609 -3.40411377 129.21934509 C-3.41780936 125.58878534 -3.41247753 121.95848093 -3.40297651 118.32791662 C-3.39538202 114.52444107 -3.40242582 110.7209874 -3.40713501 106.91751099 C-3.41259717 100.52341798 -3.40539309 94.12942881 -3.39111328 87.73535156 C-3.37482767 80.35828337 -3.38004348 72.98146445 -3.3965925 65.60440242 C-3.41024438 59.26368013 -3.41210774 52.92303256 -3.40427649 46.58230031 C-3.39961485 42.79873079 -3.39893246 39.01527803 -3.40888596 35.23171616 C-3.41760586 31.66772236 -3.41144303 28.1040465 -3.39420319 24.54008675 C-3.38839532 22.62028048 -3.39721392 20.70044708 -3.40658569 18.78065491 C-3.35617454 11.86343483 -2.59657778 6.42768045 0 0 Z " fill="#2D75CA" transform="translate(24,32)"/>
<path d="M0 0 C1.08711273 -0.00671722 2.17422546 -0.01343445 3.29428101 -0.02035522 C6.87681692 -0.03930384 10.45916518 -0.04325786 14.04174805 -0.04541016 C16.5412758 -0.05184018 19.0408028 -0.0585687 21.54032898 -0.06558228 C26.77641001 -0.07754715 32.01244373 -0.08134979 37.24853516 -0.08007812 C42.6132392 -0.07901033 47.97765512 -0.09308878 53.34228516 -0.12109375 C59.83431413 -0.15449612 66.32608457 -0.16818736 72.81819725 -0.16685867 C75.28564098 -0.16921209 77.75308763 -0.17802092 80.22048378 -0.19352341 C83.67853798 -0.21321628 87.13567971 -0.20733153 90.59375 -0.1953125 C91.60343338 -0.20655151 92.61311676 -0.21779053 93.65339661 -0.22937012 C103.38489178 -0.14383499 111.18809555 2.73896648 118.29956055 9.41943359 C122.43974149 13.999449 125.10123583 19.14410505 125.13813782 25.38711548 C125.14887077 26.63591492 125.14887077 26.63591492 125.15982056 27.90994263 C125.16250946 28.82009125 125.16519836 29.73023987 125.16796875 30.66796875 C125.17453995 31.62930725 125.18111115 32.59064575 125.18788147 33.58111572 C125.2076187 36.76810788 125.21927954 39.95505286 125.22924805 43.14208984 C125.23332357 44.2313615 125.2373991 45.32063316 125.24159813 46.44291306 C125.26246307 52.21096355 125.27676162 57.97899024 125.28613281 63.74707031 C125.29718359 69.69542906 125.33156724 75.64341233 125.37130451 81.59163857 C125.39749611 86.1728483 125.40582705 90.75396903 125.40941429 95.33524704 C125.41427552 97.52721053 125.42587621 99.71917017 125.44445229 101.91106033 C125.46889181 104.98657881 125.46786938 108.06113218 125.4609375 111.13671875 C125.48015259 112.4837236 125.48015259 112.4837236 125.49975586 113.85794067 C125.43822614 121.38500154 123.35015968 128.6601726 117.8659668 134.10302734 C111.804363 139.69735547 104.08247856 141.89258414 95.9909668 142.29052734 C92.0534668 141.97802734 92.0534668 141.97802734 88.9909668 141.29052734 C88.6609668 140.63052734 88.3309668 139.97052734 87.9909668 139.29052734 C88.9809668 139.25314453 89.9709668 139.21576172 90.9909668 139.17724609 C101.67500947 138.68736345 108.81773866 137.45409268 117.22924805 130.59521484 C121.94876037 124.42112998 122.43195975 116.98620592 122.37915039 109.47558594 C122.38440735 108.5394194 122.38966431 107.60325287 122.39508057 106.63871765 C122.40818792 103.57195916 122.39957684 100.50572778 122.3894043 97.43896484 C122.39142735 95.29383241 122.39434072 93.14870065 122.39810181 91.00357056 C122.40251232 86.52005428 122.39613381 82.03671794 122.38208008 77.55322266 C122.36496839 71.81561186 122.37485021 66.07842151 122.39279747 60.34082603 C122.403652 55.91581062 122.40018162 51.49089446 122.39241409 47.06587601 C122.39041779 44.95043513 122.39285129 42.83498514 122.39985275 40.7195549 C122.40749692 37.76168773 122.39582216 34.80449668 122.37915039 31.84667969 C122.38825943 30.54510674 122.38825943 30.54510674 122.39755249 29.21723938 C122.32250215 22.00637546 120.57145427 16.5933307 115.7409668 11.04052734 C114.92885742 10.07373047 114.92885742 10.07373047 114.1003418 9.08740234 C107.82627637 3.74282809 101.27194686 3.85350783 93.39941406 3.88647461 C92.25056732 3.87961136 91.10172058 3.87274811 89.9180603 3.86567688 C86.13103784 3.84741757 82.34442997 3.85124531 78.55737305 3.85693359 C75.91853196 3.85237147 73.27969206 3.84706581 70.64085388 3.84104919 C65.11388198 3.83103391 59.58702719 3.83430475 54.06005859 3.84448242 C47.68596716 3.85596121 41.3122966 3.84188682 34.93826061 3.81508595 C28.78781521 3.79020078 22.63756303 3.78776052 16.4870739 3.7942028 C13.87843056 3.79435601 11.26977911 3.78831247 8.66116524 3.77591133 C5.01109804 3.76100338 1.36195278 3.7716785 -2.28808594 3.78881836 C-3.3610643 3.77915039 -4.43404266 3.76948242 -5.53953552 3.75952148 C-12.21999648 3.82507609 -16.18345221 5.07646604 -22.0090332 8.29052734 C-22.9990332 7.96052734 -23.9890332 7.63052734 -25.0090332 7.29052734 C-16.8040629 0.92748915 -10.20918611 -0.00910979 0 0 Z " fill="#3C7DCB" transform="translate(56.009033203125,16.70947265625)"/>
<path d="M0 0 C5.94 0 11.88 0 18 0 C18 30.03 18 60.06 18 91 C12.39 91 6.78 91 1 91 C0 90 0 90 -0.0625 87.4375 C-0.041875 86.633125 -0.02125 85.82875 0 85 C1.32 86.32 2.64 87.64 4 89 C7.96 89.33 11.92 89.66 16 90 C16 60.96 16 31.92 16 2 C9.565 2.495 9.565 2.495 3 3 C2.67 12.57 2.34 22.14 2 32 C-2 34 -2 34 -4.25 33.625 C-4.8275 33.41875 -5.405 33.2125 -6 33 C-5.67 31.35 -5.34 29.7 -5 28 C-3.68 28.99 -2.36 29.98 -1 31 C-0.67 20.77 -0.34 10.54 0 0 Z " fill="#4E83C1" transform="translate(726,38)"/>
<path d="M0 0 C3.49844386 0.63389235 5.84086876 2.05177694 8.75 4.0625 C9.54921875 4.61035156 10.3484375 5.15820312 11.171875 5.72265625 C11.77515625 6.14417969 12.3784375 6.56570312 13 7 C10.66424493 13.57847925 6.28547098 18.05240587 0.1875 21.4375 C-8.36037465 24.88326954 -20.54308738 24.37197473 -29 21 C-25.86149936 20.07446257 -23.06319222 19.88335353 -19.796875 19.90234375 C-18.8171875 19.90556641 -17.8375 19.90878906 -16.828125 19.91210938 C-15.81234375 19.92048828 -14.7965625 19.92886719 -13.75 19.9375 C-12.203125 19.94426758 -12.203125 19.94426758 -10.625 19.95117188 C-8.08327427 19.96293912 -5.54166681 19.97937989 -3 20 C-3 19.34 -3 18.68 -3 18 C-3.66 17.67 -4.32 17.34 -5 17 C-4.649375 16.236875 -4.29875 15.47375 -3.9375 14.6875 C-2.67639116 11.95240621 -2.67639116 11.95240621 -4 9 C-6.29199177 9.14063135 -8.58359186 9.28765943 -10.875 9.4375 C-12.15117188 9.51871094 -13.42734375 9.59992188 -14.7421875 9.68359375 C-17.88300152 9.79206027 -17.88300152 9.79206027 -20 11 C-20.99 10.67 -21.98 10.34 -23 10 C-23.6875 7.9375 -23.6875 7.9375 -24 6 C-24.99 6 -25.98 6 -27 6 C-26.67 4.68 -26.34 3.36 -26 2 C-25.1028125 2.9590625 -25.1028125 2.9590625 -24.1875 3.9375 C-20.36616264 7.54047522 -16.49642065 7.27692619 -11.5078125 7.21875 C-6.96990086 6.8229197 -4.05899846 5.23549821 -1.125 1.8125 C-0.75375 1.214375 -0.3825 0.61625 0 0 Z " fill="#4086D5" transform="translate(658,107)"/>
<path d="M0 0 C18.15 0 36.3 0 55 0 C55 4.95 55 9.9 55 15 C43.45 15 31.9 15 20 15 C20 14.67 20 14.34 20 14 C31.22 14 42.44 14 54 14 C53.505 8.06 53.505 8.06 53 2 C36.17 1.67 19.34 1.34 2 1 C2.33 28.39 2.66 55.78 3 84 C7.29 84.33 11.58 84.66 16 85 C16.33 82.36 16.66 79.72 17 77 C17.33 77 17.66 77 18 77 C18 79.97 18 82.94 18 86 C12.06 86 6.12 86 0 86 C0 57.62 0 29.24 0 0 Z " fill="#4C82BC" transform="translate(480,43)"/>
<path d="M0 0 C1.125 3.75 1.125 3.75 0 6 C-0.10547857 7.86223239 -0.14662312 9.72823315 -0.15821838 11.59341431 C-0.1680072 12.78255936 -0.17779602 13.97170441 -0.18788147 15.19688416 C-0.19363693 16.50814774 -0.1993924 17.81941132 -0.20532227 19.17041016 C-0.21489851 20.55985304 -0.22490844 21.94929299 -0.23532104 23.33872986 C-0.26240367 27.11739783 -0.28339501 30.89607834 -0.30332303 34.67478991 C-0.32516191 38.62130052 -0.35256084 42.56777236 -0.37937927 46.51425171 C-0.42933458 53.9904746 -0.47426286 61.46671899 -0.51740164 68.94298398 C-0.56674978 77.45317212 -0.62167688 85.96332135 -0.67708123 94.47347188 C-0.79094484 111.98227864 -0.89777432 129.4911215 -1 147 C-1.66 146.67 -2.32 146.34 -3 146 C-3.07017676 128.29287893 -3.12303056 110.58579411 -3.15543652 92.87856388 C-3.17088516 84.65621852 -3.19193624 76.43395972 -3.22631836 68.21166992 C-3.2562822 61.04254977 -3.27558955 53.87349234 -3.28226548 46.70431131 C-3.28616595 42.91059918 -3.29529047 39.11706641 -3.31719017 35.32341194 C-3.33766593 31.74719728 -3.34381162 28.17123461 -3.33932304 24.59496689 C-3.34053222 22.66793847 -3.35661604 20.74093702 -3.3732605 18.8139801 C-3.34870155 11.8755833 -2.61104274 6.44522789 0 0 Z " fill="#3F7FD0" transform="translate(24,32)"/>
<path d="M0 0 C1.32 0.33 2.64 0.66 4 1 C3.40445313 1.25910156 2.80890625 1.51820312 2.1953125 1.78515625 C-0.17692182 3.09790513 -1.40418309 4.35781927 -3.125 6.4375 C-6.0173031 9.85736911 -8.97595384 13.19560914 -12 16.5 C-14.85930933 19.63019127 -17.68346676 22.77705463 -20.4375 26 C-23.35011832 29.36230998 -26.46261517 32.49986291 -29.625 35.625 C-33.31539884 39.27478923 -36.7993363 42.91639458 -40 47 C-43.86171589 46.42691431 -45.79993002 44.68052088 -48.625 42.0625 C-49.49640625 41.25941406 -50.3678125 40.45632812 -51.265625 39.62890625 C-54.86536441 36.16801393 -58.3390007 32.59336734 -61.7734375 28.96875 C-63.98751353 27.01104066 -65.07541361 26.18015933 -68 26 C-72.30976613 28.28681468 -75.02593282 30.50351364 -77 35 C-77.25196129 37.70953551 -77.25196129 37.70953551 -77 40 C-77.99 39.67 -78.98 39.34 -80 39 C-80.34934248 36.06552319 -80.51495218 33.85632498 -78.95703125 31.265625 C-77.625 29.625 -77.625 29.625 -75 27 C-74.34 27 -73.68 27 -73 27 C-73 26.34 -73 25.68 -73 25 C-70.64639518 23.46110454 -69.07764062 23.00352912 -66.25 22.875 C-61.29087005 24.59162191 -58.4768994 28.18194346 -55 32 C-50.99495375 36.20529856 -46.69441176 39.61023866 -42 43 C-41.38125 42.505 -40.7625 42.01 -40.125 41.5 C-38 40 -38 40 -36 40 C-35.690625 39.38125 -35.38125 38.7625 -35.0625 38.125 C-34.375 36.75 -33.6875 35.375 -33 34 C-32.34 34 -31.68 34 -31 34 C-31 33.34 -31 32.68 -31 32 C-29.4609375 30.5546875 -29.4609375 30.5546875 -27.375 28.875 C-23.77123155 25.83153477 -21.06798748 22.68821688 -18.421875 18.796875 C-16.81153469 16.76182956 -15.1743404 15.40897258 -13 14 C-12.34 14 -11.68 14 -11 14 C-10.9175 13.38125 -10.835 12.7625 -10.75 12.125 C-9.76174558 9.32494581 -8.59640015 9.25886068 -6 8 C-4.73195434 5.9664052 -4.73195434 5.9664052 -4 4 C-3.34 4 -2.68 4 -2 4 C-1.34 2.68 -0.68 1.36 0 0 Z " fill="#3B76C0" transform="translate(132,52)"/>
<path d="M0 0 C0.73151779 0.00719055 1.46303558 0.0143811 2.21672058 0.02178955 C2.98754471 0.0214975 3.75836884 0.02120544 4.55255127 0.02090454 C7.10657413 0.02230059 9.66030713 0.03787454 12.21427917 0.05352783 C13.98261862 0.05725699 15.75096012 0.06010442 17.51930237 0.06210327 C22.17840763 0.06974741 26.83738862 0.08940255 31.4964447 0.11151123 C36.24872659 0.13195289 41.00102852 0.14110139 45.75334167 0.15118408 C55.08152134 0.17264774 64.40960868 0.20679305 73.73771667 0.24884033 C72.65940857 1.7265625 72.65940857 1.7265625 70.73771667 3.24884033 C67.72862244 3.61633301 67.72862244 3.61633301 63.99064636 3.60528564 C63.30894882 3.60733002 62.62725128 3.60937439 61.92489624 3.61148071 C59.6695224 3.61449035 57.4148788 3.59599913 55.15959167 3.57696533 C53.58881308 3.57390636 52.01803177 3.57203129 50.44725037 3.57128906 C47.15187726 3.56668399 43.85674824 3.55225631 40.56144714 3.53009033 C36.35057934 3.50190093 32.13990445 3.49088791 27.92895126 3.48640823 C23.90164021 3.481232 19.87437696 3.46669299 15.84709167 3.45196533 C15.08411522 3.45008461 14.32113876 3.44820389 13.53504181 3.44626617 C11.35741837 3.43933672 9.17994093 3.42567134 7.00236511 3.40997314 C5.76565063 3.40314514 4.52893616 3.39631714 3.25474548 3.38928223 C-0.31101315 3.24689445 -3.74104127 2.81521665 -7.26228333 2.24884033 C-4.78567029 -0.2277727 -3.37897887 0.01391817 0 0 Z " fill="#3F82CD" transform="translate(68.26228332519531,155.75115966796875)"/>
<path d="M0 0 C0.93423645 3.01031744 1.04449911 3.86650268 0 7 C-1.32 6.34 -2.64 5.68 -4 5 C-4.66 5.66 -5.32 6.32 -6 7 C-5.34 8.65 -4.68 10.3 -4 12 C-2.35 12 -0.7 12 1 12 C-3.00081581 14.19950064 -7.13246635 15.13186838 -11.5390625 16.21875 C-14.1450191 16.83834918 -14.1450191 16.83834918 -16 19 C-16.65499355 24.34705146 -16.65499355 24.34705146 -14.5625 29 C-10.73363249 30.4941922 -7.05973579 30.23421553 -3 30 C-3 30.66 -3 31.32 -3 32 C-6.20328979 33.03614385 -8.31005827 32.92847968 -11.5625 32.125 C-12.32691406 31.94195312 -13.09132813 31.75890625 -13.87890625 31.5703125 C-15.60314807 31.1067042 -17.30614397 30.56461868 -19 30 C-18.96610429 18.27208454 -18.96610429 18.27208454 -16.66796875 15.24609375 C-14.49219001 13.81145619 -12.62435007 13 -10 13 C-10 12.01 -10 11.02 -10 10 C-9.34 10 -8.68 10 -8 10 C-8 8.35 -8 6.7 -8 5 C-9.58357459 5.31127516 -11.16684993 5.62407289 -12.75 5.9375 C-13.63171875 6.11152344 -14.5134375 6.28554687 -15.421875 6.46484375 C-16.69804687 6.72974609 -16.69804687 6.72974609 -18 7 C-18.74378906 7.13792969 -19.48757813 7.27585937 -20.25390625 7.41796875 C-22.28265857 7.86557605 -22.28265857 7.86557605 -23.1875 10.375 C-23.455625 11.24125 -23.72375 12.1075 -24 13 C-24.33 13.99 -24.66 14.98 -25 16 C-27.97 15.505 -27.97 15.505 -31 15 C-31.66 18.3 -32.32 21.6 -33 25 C-33.66 25 -34.32 25 -35 25 C-34.06424517 14.26746503 -34.06424517 14.26746503 -30.0625 10.5625 C-22.64171176 5.23789318 -13.42309549 3.48006432 -4.65234375 1.61328125 C-2.04272184 1.11895356 -2.04272184 1.11895356 0 0 Z " fill="#4584CB" transform="translate(314,86)"/>
<path d="M0 0 C0.33 0 0.66 0 1 0 C1.04642069 12.23100898 1.08191864 24.46199687 1.10362434 36.69307613 C1.11404403 42.37297117 1.1281701 48.05280576 1.15087891 53.73266602 C1.17267196 59.21805475 1.18458227 64.70338547 1.18975449 70.18881416 C1.19343865 72.277491 1.20063281 74.3661648 1.21146011 76.45481682 C1.22606089 79.38913614 1.22797435 82.32321832 1.22705078 85.25756836 C1.23424133 86.11353104 1.24143188 86.96949371 1.24884033 87.85139465 C1.22717317 94.24844544 0.93173171 100.98403651 -2.59375 106.48828125 C-9.66555888 113.25577049 -17.22334106 116.51918071 -27 117 C-30.9375 116.6875 -30.9375 116.6875 -34 116 C-34.33 115.34 -34.66 114.68 -35 114 C-34.01 113.96261719 -33.02 113.92523438 -32 113.88671875 C-21.31595733 113.39683611 -14.17322813 112.16356533 -5.76171875 105.3046875 C-1.08946834 99.19243087 -0.55501168 91.79157672 -0.56762695 84.34936523 C-0.5574353 83.43121536 -0.54724365 82.51306549 -0.53674316 81.5670929 C-0.50680369 78.56419624 -0.49737648 75.56161956 -0.48828125 72.55859375 C-0.47142044 70.46394303 -0.45326832 68.36930234 -0.43388367 66.27467346 C-0.38652997 60.78554418 -0.35662605 55.29645559 -0.33044434 49.80718994 C-0.30056484 44.19624805 -0.25405996 38.58544613 -0.20898438 32.97460938 C-0.12311776 21.98314636 -0.05569861 10.99165441 0 0 Z " fill="#3175CB" transform="translate(179,42)"/>
<path d="M0 0 C8.56771763 0.64257882 14.08627399 5.64654752 19.5546875 11.83984375 C23.34253443 17.5011393 23.28799764 23.25655981 23.25878906 29.81323242 C23.2622937 30.78464676 23.26579834 31.7560611 23.26940918 32.75691223 C23.27818686 35.95650449 23.27239266 39.15587438 23.265625 42.35546875 C23.26697246 44.58173159 23.26891367 46.80799415 23.27142334 49.03425598 C23.27436895 53.69368296 23.27009376 58.35303313 23.26074219 63.01245117 C23.24932814 68.9914747 23.25592309 74.97031905 23.26788712 80.94933605 C23.27510391 85.54317075 23.27281895 90.13696275 23.26763153 94.73079872 C23.26629557 96.93606907 23.26794089 99.14134327 23.27259064 101.34660912 C23.27765501 104.42282818 23.26994766 107.49875402 23.25878906 110.57495117 C23.26283752 111.48981293 23.26688599 112.40467468 23.27105713 113.34725952 C23.26541748 114.18412796 23.25977783 115.0209964 23.25396729 115.88322449 C23.25321323 116.61010058 23.25245918 117.33697668 23.25168228 118.08587933 C23 120 23 120 21 123 C21.00888245 121.78192657 21.01776489 120.56385315 21.0269165 119.30886841 C21.1081644 107.80401029 21.1680432 96.29921074 21.20724869 84.79413033 C21.22808255 78.87988408 21.25632368 72.9658703 21.30175781 67.05175781 C21.345365 61.33941248 21.36916868 55.62729011 21.37950897 49.91479111 C21.38687364 47.7403907 21.40125495 45.56600187 21.42292023 43.39169693 C21.45215154 40.33524896 21.45594773 37.27971081 21.45410156 34.22314453 C21.46848267 33.33337418 21.48286377 32.44360382 21.49768066 31.52687073 C21.43793472 22.32648813 18.37258734 14.51824196 12.08203125 7.76171875 C8.46868233 4.70426967 4.34154975 2.81698662 0 1 C0 0.67 0 0.34 0 0 Z " fill="#3F78BB" transform="translate(158,18)"/>
<path d="M0 0 C1.125 3.75 1.125 3.75 0 6 C0.99 6.33 1.98 6.66 3 7 C1.9275 7.2475 0.855 7.495 -0.25 7.75 C-4.04588722 9.01529574 -5.39623817 10.1069313 -8 13 C-8.66 13 -9.32 13 -10 13 C-10.33 14.32 -10.66 15.64 -11 17 C-11.99 17 -12.98 17 -14 17 C-14.07476562 17.56589844 -14.14953125 18.13179687 -14.2265625 18.71484375 C-15.27359826 21.80835848 -17.02531339 23.31546961 -19.375 25.5625 C-20.16648437 26.32691406 -20.95796875 27.09132813 -21.7734375 27.87890625 C-22.50820312 28.57886719 -23.24296875 29.27882813 -24 30 C-25.77356527 31.69732604 -26.90115013 32.80230025 -28 35 C-28.66 35 -29.32 35 -30 35 C-30.33 35.99 -30.66 36.98 -31 38 C-33.5346018 40.63208648 -34.86374183 40.98804753 -38.5625 41.3125 C-42 41 -42 41 -45 39 C-45 38.34 -45 37.68 -45 37 C-45.66 37 -46.32 37 -47 37 C-46.67 36.01 -46.34 35.02 -46 34 C-45.46375 34.66 -44.9275 35.32 -44.375 36 C-42.14358446 38.24859928 -42.14358446 38.24859928 -39.11889648 38.35351562 C-35.34737431 37.92602724 -34.32524264 37.04249943 -31.72265625 34.34375 C-30.96146484 33.56773438 -30.20027344 32.79171875 -29.41601562 31.9921875 C-28.63935547 31.16976562 -27.86269531 30.34734375 -27.0625 29.5 C-26.28970703 28.70851563 -25.51691406 27.91703125 -24.72070312 27.1015625 C-20.55004029 22.80045628 -16.53223955 18.38916283 -12.61450195 13.85742188 C-10.15038464 11.02255049 -7.60869988 8.26102449 -5.0625 5.5 C-4.32290039 4.695625 -4.32290039 4.695625 -3.56835938 3.875 C-2.37976261 2.58254526 -1.19001177 1.29115201 0 0 Z " fill="#3877C5" transform="translate(129,85)"/>
<path d="M0 0 C1.125 3.75 1.125 3.75 0 6 C-0.14803044 7.58251452 -0.23676827 9.17073799 -0.29663086 10.7590332 C-0.33567032 11.77321823 -0.37470978 12.78740326 -0.41493225 13.83232117 C-0.45202805 14.95628799 -0.48912384 16.08025482 -0.52734375 17.23828125 C-0.56866928 18.42424393 -0.60999481 19.6102066 -0.65257263 20.83210754 C-1.17058829 36.78145667 -1.34125091 52.73803268 -1.53222656 68.69396973 C-1.58352249 72.91905767 -1.63862934 77.14409602 -1.69335938 81.36914062 C-1.79917896 89.57938452 -1.90097313 97.78967137 -2 106 C-2.33 106 -2.66 106 -3 106 C-3.06962465 93.50824312 -3.12287463 81.01653269 -3.15543652 68.52462101 C-3.17106751 62.72361949 -3.19225905 56.92275109 -3.22631836 51.12182617 C-3.2590031 45.51972082 -3.27687231 39.91774323 -3.28463173 34.31554985 C-3.29015887 32.18220446 -3.30095195 30.04886577 -3.31719017 27.91557503 C-3.33908542 24.91890682 -3.34196185 21.9227612 -3.34057617 18.92602539 C-3.351362 18.05136124 -3.36214783 17.17669708 -3.3732605 16.27552795 C-3.34382384 10.36145615 -2.18389459 5.49057117 0 0 Z " fill="#4A7DC7" transform="translate(24,32)"/>
<path d="M0 0 C5.15464734 0.48324819 8.81550319 3.18610761 13 6 C12.56562648 10.92289989 10.356381 13.48750825 7 17 C4.6875 18.375 4.6875 18.375 3 19 C3.33 18.4225 3.66 17.845 4 17.25 C5.27075898 14.80116138 5.27075898 14.80116138 5 11 C6.32 10.34 7.64 9.68 9 9 C6.69 7.02 4.38 5.04 2 3 C0.3603125 4.2065625 0.3603125 4.2065625 -1.3125 5.4375 C-7.18014843 9.75520356 -12.93374112 9.39155816 -20 9 C-22.48156332 8.52436703 -24.61842281 7.86602807 -27 7 C-27 5.35 -27 3.7 -27 2 C-26.53851562 2.3609375 -26.07703125 2.721875 -25.6015625 3.09375 C-20.09622335 7.01059208 -15.69657978 8.03196874 -9 7 C-4.74889501 5.45414364 -2.38914841 3.84918355 0 0 Z " fill="#4982C4" transform="translate(588,107)"/>
<path d="M0 0 C-4.01985378 2.67990252 -8.13401811 5.20524985 -12.24169922 7.74755859 C-16.08224796 10.13626547 -19.8781546 12.57191022 -23.625 15.10546875 C-24.75397705 15.86162476 -24.75397705 15.86162476 -25.90576172 16.63305664 C-27.35776936 17.60920831 -28.80249416 18.59630369 -30.23876953 19.59545898 C-34.30915432 22.31675977 -36.92578378 23.61649356 -42 23 C-42.33 22.34 -42.66 21.68 -43 21 C-42.071875 21 -41.14375 21 -40.1875 21 C-35.19177538 20.29778971 -31.87172516 17.18833361 -27.96875 14.19140625 C-24.08671861 11.32585413 -19.99361101 8.97955233 -15.796875 6.609375 C-13.3121107 5.17959442 -10.94363954 3.65589413 -8.5625 2.0625 C-5.61231059 0.17782785 -3.57838076 -0.55912199 0 0 Z " fill="#3875BC" transform="translate(66,158)"/>
<path d="M0 0 C0.66 0 1.32 0 2 0 C2 2.31 2 4.62 2 7 C-10.87 7 -23.74 7 -37 7 C-37 6.34 -37 5.68 -37 5 C-24.79 5 -12.58 5 0 5 C0 3.35 0 1.7 0 0 Z " fill="#487FBB" transform="translate(268,51)"/>
<path d="M0 0 C19.14 0 38.28 0 58 0 C55 3 55 3 51.84863281 3.07202148 C50.56311523 2.94384033 49.27759766 2.81565918 47.953125 2.68359375 C41.92320047 2.16290449 35.97443161 1.9101794 29.921875 1.97265625 C29.16805542 1.97840668 28.41423584 1.9841571 27.63757324 1.99008179 C24.55039903 2.01661875 21.46344611 2.0524463 18.37646484 2.09594727 C16.07909401 2.12606972 13.7818794 2.1438582 11.484375 2.16015625 C10.78963074 2.17361588 10.09488647 2.1870755 9.37908936 2.20094299 C5.41161105 2.22160502 3.68002166 1.84001083 0 0 Z " fill="#307BCF" transform="translate(84,156)"/>
<path d="M0 0 C2.475 0.495 2.475 0.495 5 1 C5 1.66 5 2.32 5 3 C5.66 3 6.32 3 7 3 C7.495 4.98 7.495 4.98 8 7 C6.0625 6.25 6.0625 6.25 4 5 C3.25 2.875 3.25 2.875 3 1 C2.34 1 1.68 1 1 1 C0.773125 1.5775 0.54625 2.155 0.3125 2.75 C-1.91048868 6.56083774 -4.85788992 8.61929664 -9 10 C-11.26763574 10.14648082 -13.54032366 10.2209626 -15.8125 10.25 C-17.61654297 10.28867188 -17.61654297 10.28867188 -19.45703125 10.328125 C-23.28988045 9.9731533 -25.69715027 8.92202587 -29 7 C-28.34 6.67 -27.68 6.34 -27 6 C-26.01 6.33 -25.02 6.66 -24 7 C-21.60745424 7.22560676 -19.21071877 7.40848595 -16.8125 7.5625 C-14.90404297 7.68818359 -14.90404297 7.68818359 -12.95703125 7.81640625 C-11.98121094 7.87699219 -11.00539063 7.93757813 -10 8 C-9.67 7.34 -9.34 6.68 -9 6 C-6 4 -6 4 -2 4 C-1.34 2.68 -0.68 1.36 0 0 Z " fill="#4E83C5" transform="translate(316,120)"/>
<path d="M0 0 C0 0.33 0 0.66 0 1 C-5.94 1 -11.88 1 -18 1 C-18 1.66 -18 2.32 -18 3 C-25.625 5 -25.625 5 -29 5 C-29.2475 5.61875 -29.495 6.2375 -29.75 6.875 C-31.23281451 9.39578467 -32.40863958 9.7852998 -35 11 C-35.66 11.99 -36.32 12.98 -37 14 C-37.33 12.68 -37.66 11.36 -38 10 C-27.29549854 1.02974738 -13.9220475 -3.712546 0 0 Z " fill="#4E83C4" transform="translate(319,63)"/>
<path d="M0 0 C2.64 0.33 5.28 0.66 8 1 C4.95116797 4.76620428 0.56795213 6.67534308 -4.16088867 7.27319336 C-6.46862509 7.36562305 -8.75354503 7.36064335 -11.0625 7.3125 C-11.83916016 7.31572266 -12.61582031 7.31894531 -13.41601562 7.32226562 C-17.98816375 7.27967999 -21.69969616 6.72700202 -26 5 C-22.86149936 4.07446257 -20.06319222 3.88335353 -16.796875 3.90234375 C-15.8171875 3.90556641 -14.8375 3.90878906 -13.828125 3.91210938 C-12.81234375 3.92048828 -11.7965625 3.92886719 -10.75 3.9375 C-9.203125 3.94426758 -9.203125 3.94426758 -7.625 3.95117188 C-5.08327427 3.96293912 -2.54166681 3.97937989 0 4 C0 2.68 0 1.36 0 0 Z " fill="#4C83C1" transform="translate(655,123)"/>
<path d="M0 0 C3.26954202 0.56371414 4.82575883 1.49962266 7 4 C5.948125 3.9175 4.89625 3.835 3.8125 3.75 C-0.01476968 3.62436626 -0.01476968 3.62436626 -2.3203125 5.94140625 C-5.53276353 8.40928044 -7.69667614 8.72789543 -11.6875 9.1875 C-15.99231972 9.59667759 -15.99231972 9.59667759 -20 11 C-20.99 10.67 -21.98 10.34 -23 10 C-23.6875 7.9375 -23.6875 7.9375 -24 6 C-24.99 6 -25.98 6 -27 6 C-26.67 4.68 -26.34 3.36 -26 2 C-25.1028125 2.9590625 -25.1028125 2.9590625 -24.1875 3.9375 C-20.36616264 7.54047522 -16.49642065 7.27692619 -11.5078125 7.21875 C-6.96990086 6.8229197 -4.05899846 5.23549821 -1.125 1.8125 C-0.75375 1.214375 -0.3825 0.61625 0 0 Z " fill="#4A82C2" transform="translate(658,107)"/>
<path d="M0 0 C1.34313399 0.64669414 2.67391178 1.31903578 4 2 C5.3303125 2.5878125 5.3303125 2.5878125 6.6875 3.1875 C9 5 9 5 10.125 8.1875 C9.96030278 13.21076526 8.31300442 16.26740663 5 20 C2.1875 21.5 2.1875 21.5 0 22 C0 22.66 0 23.32 0 24 C-0.66 24 -1.32 24 -2 24 C-0.13460005 19.8028501 2.71611594 16.73274278 5.734375 13.31640625 C7.31701067 11.03898507 7.31701067 11.03898507 6.3671875 8.421875 C5.16352006 6.28966411 3.99107236 4.51621346 2.375 2.6875 C1.59125 1.800625 0.8075 0.91375 0 0 Z " fill="#407CC3" transform="translate(139,53)"/>
<path d="M0 0 C2.31 0 4.62 0 7 0 C7 0.66 7 1.32 7 2 C19.375 1.505 19.375 1.505 32 1 C27.15350891 4.23099406 22.96092536 4.21347017 17.3125 4.25 C16.53455078 4.270625 15.75660156 4.29125 14.95507812 4.3125 C9.30801069 4.35017851 5.18087846 3.2499815 0 1 C0 0.67 0 0.34 0 0 Z " fill="#4C83BF" transform="translate(557,126)"/>
<path d="M0 0 C1.29790193 4.22508501 0.35421479 6.79480672 -1 11 C-1.33 12.175625 -1.66 13.35125 -2 14.5625 C-2.92396999 17.73864685 -3.93122678 20.87002129 -5 24 C-5.66 24 -6.32 24 -7 24 C-7.12375 24.78375 -7.2475 25.5675 -7.375 26.375 C-8 29 -8 29 -10 31 C-8.59643358 23.85658565 -6.42618635 17.24817592 -3.875 10.4375 C-3.50246094 9.42880859 -3.12992187 8.42011719 -2.74609375 7.38085938 C-1.83587803 4.91860915 -0.92043712 2.45844342 0 0 Z " fill="#4883C4" transform="translate(449,69)"/>
<path d="M0 0 C4.99929812 2.63851845 7.83084276 5.60601136 10.3125 10.6875 C11.25033753 15.20617172 11.00485642 19.49435345 10 24 C9.34 24.66 8.68 25.32 8 26 C9 18.57142857 9 18.57142857 10 15 C9.34 15 8.68 15 8 15 C7.7525 14.05125 7.505 13.1025 7.25 12.125 C6.3142923 8.91306809 6.3142923 8.91306809 3.875 7.625 C3.25625 7.41875 2.6375 7.2125 2 7 C2 5.35 2 3.7 2 2 C1.34 2 0.68 2 0 2 C0 1.34 0 0.68 0 0 Z " fill="#4E83C1" transform="translate(388,92)"/>
<path d="M0 0 C0 3 0 3 -1.375 4.6875 C-3.277386 7.39474162 -3.80435565 9.70086562 -4.47265625 12.90234375 C-5 15 -5 15 -6.01953125 17.328125 C-7.19807718 20.53978004 -7.41836079 23.40295306 -7.625 26.8125 C-7.69976563 27.97394531 -7.77453125 29.13539062 -7.8515625 30.33203125 C-7.90054688 31.21246094 -7.94953125 32.09289062 -8 33 C-8.33 33 -8.66 33 -9 33 C-9.50470375 21.82641979 -9.70671922 11.46875636 -2.25 2.3125 C-1.5075 1.549375 -0.765 0.78625 0 0 Z " fill="#4884C2" transform="translate(620,71)"/>
<path d="M0 0 C0.33 0 0.66 0 1 0 C1.18304688 0.94101563 1.36609375 1.88203125 1.5546875 2.8515625 C2.72142019 6.30454752 2.72142019 6.30454752 6.2578125 7.4609375 C7.53398437 7.76257813 8.81015625 8.06421875 10.125 8.375 C12.04699219 8.85066406 12.04699219 8.85066406 14.0078125 9.3359375 C15.48894531 9.66464844 15.48894531 9.66464844 17 10 C14.26263669 12.3148173 12.55131292 13.41677818 8.9375 13.375 C5 13 5 13 3.125 11.75 C2.75375 11.1725 2.3825 10.595 2 10 C1.608125 9.401875 1.21625 8.80375 0.8125 8.1875 C-0.22928313 5.38269926 -0.13484493 2.9665884 0 0 Z " fill="#4781C8" transform="translate(363,79)"/>
<path d="M0 0 C0.33 0 0.66 0 1 0 C1.02505615 1.08007324 1.0501123 2.16014648 1.07592773 3.27294922 C1.16995572 7.27242312 1.27018754 11.27172147 1.37231445 15.27099609 C1.4156808 17.00337626 1.45735463 18.73579963 1.49731445 20.46826172 C1.55497594 22.95553627 1.61868198 25.44259293 1.68359375 27.9296875 C1.70030624 28.70682098 1.71701874 29.48395447 1.73423767 30.28463745 C1.76473429 34.27274216 1.76473429 34.27274216 3 38 C6.02934491 38.65772428 6.02934491 38.65772428 9 39 C8.67 40.32 8.34 41.64 8 43 C8 42.01 8 41.02 8 40 C6.2984375 40.0309375 6.2984375 40.0309375 4.5625 40.0625 C1 40 1 40 0 39 C-0.08865208 36.1156618 -0.11521296 33.25537842 -0.09765625 30.37109375 C-0.0962413 29.50686295 -0.09482635 28.64263214 -0.09336853 27.75221252 C-0.08775239 24.98060708 -0.07519719 22.2090812 -0.0625 19.4375 C-0.05748708 17.5631522 -0.05292381 15.68880315 -0.04882812 13.81445312 C-0.03777772 9.20960456 -0.0205023 4.60481579 0 0 Z " fill="#4581C3" transform="translate(332,76)"/>
<path d="M0 0 C0.66 0 1.32 0 2 0 C2 0.99 2 1.98 2 3 C2.61875 2.814375 3.2375 2.62875 3.875 2.4375 C6 2 6 2 8 3 C8 3.66 8 4.32 8 5 C16.91 5 25.82 5 35 5 C35 5.33 35 5.66 35 6 C24.11 6 13.22 6 2 6 C2 5.34 2 4.68 2 4 C1.34 4 0.68 4 0 4 C0 2.68 0 1.36 0 0 Z " fill="#4986CC" transform="translate(627,95)"/>
<path d="M0 0 C0.598125 0.20625 1.19625 0.4125 1.8125 0.625 C0.9875 0.955 0.1625 1.285 -0.6875 1.625 C-3.30872564 3.30891702 -3.30872564 3.30891702 -3.66015625 5.5 C-3.79959782 8.79809629 -3.7027535 10.90812556 -1.75 13.625 C2.07886751 15.1191922 5.75276421 14.85921553 9.8125 14.625 C9.8125 15.285 9.8125 15.945 9.8125 16.625 C6.60921021 17.66114385 4.50244173 17.55347968 1.25 16.75 C0.48558594 16.56695312 -0.27882813 16.38390625 -1.06640625 16.1953125 C-2.79064807 15.7317042 -4.49364397 15.18961868 -6.1875 14.625 C-6.1006724 12.49922093 -5.9925049 10.37430419 -5.875 8.25 C-5.81699219 7.06664063 -5.75898438 5.88328125 -5.69921875 4.6640625 C-5.53035156 3.66117187 -5.36148437 2.65828125 -5.1875 1.625 C-2.1875 -0.375 -2.1875 -0.375 0 0 Z " fill="#4981C4" transform="translate(301.1875,101.375)"/>
<path d="M0 0 C7.92 0 15.84 0 24 0 C20.94607884 3.05392116 17.294501 2.4300161 13.1875 2.5625 C6.03791697 2.79415171 6.03791697 2.79415171 -1 4 C-0.67 2.68 -0.34 1.36 0 0 Z " fill="#4181CC" transform="translate(631,89)"/>
<path d="M0 0 C0.73734375 0.00773438 1.4746875 0.01546875 2.234375 0.0234375 C3.34039062 0.01183594 3.34039062 0.01183594 4.46875 0 C9.9810554 0.0201179 9.9810554 0.0201179 12.234375 2.2734375 C11.234375 3.2734375 11.234375 3.2734375 8.7578125 3.40625 C3.14487826 3.39232212 -2.23849226 3.27837072 -7.765625 2.2734375 C-5.20613501 -0.28605249 -3.49355305 0.01275019 0 0 Z " fill="#347ECF" transform="translate(68.765625,155.7265625)"/>
<path d="M0 0 C6.12329055 4.95074555 13.43322076 10.86644151 17 18 C13.43235179 17.42380903 11.74840503 16.13030516 9.25 13.5625 C8.63640625 12.94503906 8.0228125 12.32757813 7.390625 11.69140625 C6 10 6 10 6 8 C5.01 7.67 4.02 7.34 3 7 C1.62665383 4.71108972 0.84749184 2.54247553 0 0 Z " fill="#3E75BC" transform="translate(65,101)"/>
<path d="M0 0 C0.33 0 0.66 0 1 0 C3.02531646 13.92405063 3.02531646 13.92405063 1 20 C0.01 20 -0.98 20 -2 20 C-2 20.99 -2 21.98 -2 23 C-2.66 23 -3.32 23 -4 23 C-3.690625 22.21625 -3.38125 21.4325 -3.0625 20.625 C-1.4054456 14.97152028 -1 9.31518001 -1 3.4375 C-1 1 -1 1 0 0 Z " fill="#4683C9" transform="translate(727,88)"/>
<path d="M0 0 C5.35709552 0.33481847 9.209884 3.43984609 13 7 C14.5 9.875 14.5 9.875 15 12 C14.01 11.67 13.02 11.34 12 11 C11.67 10.01 11.34 9.02 11 8 C10.34 7.67 9.68 7.34 9 7 C9 6.34 9 5.68 9 5 C7.68 5 6.36 5 5 5 C5 5.66 5 6.32 5 7 C3.68 7 2.36 7 1 7 C1 6.01 1 5.02 1 4 C1.66 4 2.32 4 3 4 C3 3.34 3 2.68 3 2 C2.01 2 1.02 2 0 2 C0 1.34 0 0.68 0 0 Z " fill="#4A86C7" transform="translate(653,64)"/>
<path d="M0 0 C4.28726268 1.37192406 5.51562704 3.39292561 8.125 7 C2.41790936 6.53411505 -1.03439723 5.06242216 -5.875 2 C-2.875 0 -2.875 0 0 0 Z " fill="#4483CB" transform="translate(359.875,95)"/>
<path d="M0 0 C0 0.66 0 1.32 0 2 C-0.99 2 -1.98 2 -3 2 C-3.33 2.99 -3.66 3.98 -4 5 C-4.639375 5.12375 -5.27875 5.2475 -5.9375 5.375 C-6.618125 5.58125 -7.29875 5.7875 -8 6 C-9.29660434 8.49034386 -9.29660434 8.49034386 -10 11 C-10.66 11 -11.32 11 -12 11 C-12.33 13.64 -12.66 16.28 -13 19 C-13.66 18.67 -14.32 18.34 -15 18 C-13.7586938 12.00035338 -12.52480146 6.53911873 -7.25390625 2.7421875 C-2.64204545 0 -2.64204545 0 0 0 Z " fill="#4D81BD" transform="translate(362,64)"/>
<path d="M0 0 C2.475 0.495 2.475 0.495 5 1 C4.01 1.495 4.01 1.495 3 2 C3 4.31 3 6.62 3 9 C-5.58 9 -14.16 9 -23 9 C-23 8.67 -23 8.34 -23 8 C-14.75 8 -6.5 8 2 8 C1.34 5.36 0.68 2.72 0 0 Z " fill="#4A82C1" transform="translate(583,81)"/>
<path d="M0 0 C2.97 0 5.94 0 9 0 C9 0.66 9 1.32 9 2 C9.639375 2.144375 10.27875 2.28875 10.9375 2.4375 C13 3 13 3 14 4 C14.0979057 5.49738124 14.12974864 6.99942892 14.125 8.5 C14.12757813 9.3146875 14.13015625 10.129375 14.1328125 10.96875 C14 13 14 13 13 14 C11.33382885 14.04063832 9.66611905 14.042721 8 14 C8.66 13.62875 9.32 13.2575 10 12.875 C12.35303045 11.09105222 12.35303045 11.09105222 12.25 7.8125 C12.12625 6.4203125 12.12625 6.4203125 12 5 C10.7625 4.54625 9.525 4.0925 8.25 3.625 C5.35550168 2.56368395 2.78272544 1.39136272 0 0 Z " fill="#4A82C2" transform="translate(368,102)"/>
<path d="M0 0 C0.33 1.32 0.66 2.64 1 4 C1.99 3.67 2.98 3.34 4 3 C3.979375 3.9075 3.95875 4.815 3.9375 5.75 C3.86248264 8.86712481 3.86248264 8.86712481 4.625 11.25 C4.74875 11.8275 4.8725 12.405 5 13 C4.34 13.66 3.68 14.32 3 15 C2.29634398 13.4447088 1.61270622 11.88035173 0.9375 10.3125 C0.55464844 9.44238281 0.17179687 8.57226562 -0.22265625 7.67578125 C-1.0935848 4.67786136 -0.85006226 2.96719847 0 0 Z " fill="#4483C8" transform="translate(407,73)"/>
<path d="M0 0 C0.56976562 0.16242188 1.13953125 0.32484375 1.7265625 0.4921875 C7.39099488 1.75743872 13.3637689 1.15614997 19 0 C18.01 1.485 18.01 1.485 17 3 C14.28515625 3.51171875 14.28515625 3.51171875 11.0625 3.6875 C9.47115234 3.78611328 9.47115234 3.78611328 7.84765625 3.88671875 C5.89961256 3.96421294 3.94958446 4 2 4 C1.34 2.68 0.68 1.36 0 0 Z " fill="#4C83CA" transform="translate(704,113)"/>
<path d="M0 0 C2.73000671 2.73000671 3.51097906 5.91345467 4.6875 9.5 C4.92533203 10.18964844 5.16316406 10.87929687 5.40820312 11.58984375 C7.12393424 16.75213151 7.12393424 16.75213151 6 19 C5.54625 18.34 5.0925 17.68 4.625 17 C4.08875 16.34 3.5525 15.68 3 15 C2.34 15 1.68 15 1 15 C1.01160156 14.41992188 1.02320313 13.83984375 1.03515625 13.2421875 C1.08762174 8.7001754 0.91751063 4.47286431 0 0 Z " fill="#4D83C4" transform="translate(428,89)"/>
<path d="M0 0 C3.91401605 3.91401605 4.125 10.21493268 4.125 15.5625 C4.08375 16.696875 4.0425 17.83125 4 19 C3.34 19 2.68 19 2 19 C1.93941406 18.22914062 1.87882813 17.45828125 1.81640625 16.6640625 C1.73261719 15.66117188 1.64882813 14.65828125 1.5625 13.625 C1.48128906 12.62726563 1.40007813 11.62953125 1.31640625 10.6015625 C1.15034374 8.02072387 1.15034374 8.02072387 0 6 C-0.039992 4.00039988 -0.04346799 1.99952758 0 0 Z " fill="#4D84BF" transform="translate(668,76)"/>
<path d="M0 0 C2.9375 0.375 2.9375 0.375 6 1 C6.33 1.66 6.66 2.32 7 3 C5.35 3 3.7 3 2 3 C0.57499941 6.99000166 -0.40075776 10.80530429 -1 15 C-1.66 15 -2.32 15 -3 15 C-2.69163768 12.87439563 -2.37818386 10.74952935 -2.0625 8.625 C-1.88847656 7.44164062 -1.71445312 6.25828125 -1.53515625 5.0390625 C-1 2 -1 2 0 0 Z " fill="#5083BC" transform="translate(404,139)"/>
<path d="M0 0 C1.27230469 0.00902344 2.54460938 0.01804687 3.85546875 0.02734375 C5.31919922 0.04474609 5.31919922 0.04474609 6.8125 0.0625 C7.1425 0.7225 7.4725 1.3825 7.8125 2.0625 C6.93207031 2.01609375 6.05164063 1.9696875 5.14453125 1.921875 C3.40236328 1.86773437 3.40236328 1.86773437 1.625 1.8125 C0.47644531 1.76609375 -0.67210937 1.7196875 -1.85546875 1.671875 C-6.70242345 2.24009947 -8.8535836 4.7285836 -12.1875 8.0625 C-12.1875 6.7425 -12.1875 5.4225 -12.1875 4.0625 C-11.5275 4.0625 -10.8675 4.0625 -10.1875 4.0625 C-10.1875 3.0725 -10.1875 2.0825 -10.1875 1.0625 C-6.62704823 -0.12431726 -3.74941663 -0.03439832 0 0 Z " fill="#4F81BD" transform="translate(712.1875,76.9375)"/>
<path d="M0 0 C1 2 1 2 0.22265625 4.6015625 C-0.16019531 5.59929687 -0.54304688 6.59703125 -0.9375 7.625 C-1.31777344 8.62789062 -1.69804687 9.63078125 -2.08984375 10.6640625 C-2.39019531 11.43492188 -2.69054687 12.20578125 -3 13 C-3.33 13 -3.66 13 -4 13 C-4.66 10.36 -5.32 7.72 -6 5 C-4.68 5 -3.36 5 -2 5 C-2 3.68 -2 2.36 -2 1 C-1.34 0.67 -0.68 0.34 0 0 Z " fill="#4582CA" transform="translate(452,105)"/>
<path d="M0 0 C2 3.75 2 3.75 2 6 C2.99 6.33 3.98 6.66 5 7 C5.12375 7.78375 5.2475 8.5675 5.375 9.375 C5.79117993 12.14057822 5.79117993 12.14057822 8 14 C7.34 14.66 6.68 15.32 6 16 C2.28147345 10.67011195 -0.37848965 6.62356889 0 0 Z " fill="#4982C1" transform="translate(612,104)"/>
<path d="M0 0 C-1.76371818 1.03307771 -3.53625033 2.05112049 -5.3125 3.0625 C-6.79169922 3.91521484 -6.79169922 3.91521484 -8.30078125 4.78515625 C-11 6 -11 6 -14 5 C-12.89932004 4.18278283 -11.79430269 3.37140549 -10.6875 2.5625 C-10.07261719 2.11003906 -9.45773438 1.65757813 -8.82421875 1.19140625 C-5.56347902 -0.93819893 -3.61381675 -1.12152934 0 0 Z " fill="#3E7AC0" transform="translate(45,19)"/>
<path d="M0 0 C0 0.99 0 1.98 0 3 C-3.3 2.67 -6.6 2.34 -10 2 C-10.33 2.66 -10.66 3.32 -11 4 C-11.33 2.68 -11.66 1.36 -12 0 C-7.91556885 -1.53166168 -4.20544343 -0.63081652 0 0 Z " fill="#377BD3" transform="translate(415,64)"/>
<path d="M0 0 C0.33 0.99 0.66 1.98 1 3 C0.360625 3.61875 -0.27875 4.2375 -0.9375 4.875 C-3.03883584 6.82597612 -3.03883584 6.82597612 -4 9 C-4.66 9 -5.32 9 -6 9 C-6.33 9.99 -6.66 10.98 -7 12 C-7.74609375 10.265625 -7.74609375 10.265625 -8 8 C-6.34765625 5.859375 -6.34765625 5.859375 -4.0625 3.75 C-3.31097656 3.04359375 -2.55945313 2.3371875 -1.78515625 1.609375 C-1.19605469 1.07828125 -0.60695313 0.5471875 0 0 Z " fill="#407DC6" transform="translate(105,111)"/>
<path d="M0 0 C2 2 2 2 2 5 C3.32 4.67 4.64 4.34 6 4 C5.79375 4.556875 5.5875 5.11375 5.375 5.6875 C4.89304789 8.659538 5.73434972 10.31979941 7 13 C3.61939099 9.88628118 1.29079964 7.45912603 0 3 C0 2.01 0 1.02 0 0 Z " fill="#4982C3" transform="translate(683,110)"/>
<path d="M0 0 C1.65322266 0.01740234 1.65322266 0.01740234 3.33984375 0.03515625 C4.99693359 0.04869141 4.99693359 0.04869141 6.6875 0.0625 C7.54214844 0.07410156 8.39679688 0.08570313 9.27734375 0.09765625 C9.27734375 0.42765625 9.27734375 0.75765625 9.27734375 1.09765625 C8.24609375 1.20078125 7.21484375 1.30390625 6.15234375 1.41015625 C2.3265043 2.08893422 -0.3563565 3.2092442 -3.72265625 5.09765625 C-3.72265625 0.13352426 -3.72265625 0.13352426 0 0 Z " fill="#5A81CB" transform="translate(454.72265625,62.90234375)"/>
<path d="M0 0 C0.52078125 0.64453125 1.0415625 1.2890625 1.578125 1.953125 C4.70975418 4.59985676 6.69773096 4.58790924 10.75 4.75 C12.50570312 4.83507812 12.50570312 4.83507812 14.296875 4.921875 C15.18890625 4.94765625 16.0809375 4.9734375 17 5 C17 5.33 17 5.66 17 6 C14.35409986 6.02684679 11.70846904 6.04676357 9.0625 6.0625 C7.93038086 6.07506836 7.93038086 6.07506836 6.77539062 6.08789062 C4.85005687 6.09652441 2.92464419 6.05224333 1 6 C0 5 0 5 -0.0625 2.4375 C-0.041875 1.633125 -0.02125 0.82875 0 0 Z " fill="#4580C0" transform="translate(726,123)"/>
<path d="M0 0 C1.29608947 0.93137592 2.58671632 1.8703566 3.875 2.8125 C4.59429687 3.33457031 5.31359375 3.85664062 6.0546875 4.39453125 C8 6 8 6 10 9 C9.01 9.495 9.01 9.495 8 10 C6.84481082 9.09515208 5.70114594 8.1755794 4.5625 7.25 C3.60537109 6.48429687 3.60537109 6.48429687 2.62890625 5.703125 C0.81189446 3.80332371 0.39576803 2.56413092 0 0 Z " fill="#3E79BB" transform="translate(55,92)"/>
<path d="M0 0 C1.32830615 3.98491845 0.23204404 5.40048548 -1.4375 9.1875 C-1.91058594 10.27417969 -2.38367188 11.36085938 -2.87109375 12.48046875 C-3.42990234 13.72763672 -3.42990234 13.72763672 -4 15 C-4.33 15 -4.66 15 -5 15 C-5.78287497 8.89357521 -3.10825151 4.99540421 0 0 Z " fill="#467EC1" transform="translate(462,79)"/>
<path d="M0 0 C1.79133978 -0.05391993 3.58313899 -0.09275571 5.375 -0.125 C6.37273437 -0.14820313 7.37046875 -0.17140625 8.3984375 -0.1953125 C11 0 11 0 13 2 C8.74936599 3.15926382 5.29942266 2.90949326 1 2 C0.67 1.34 0.34 0.68 0 0 Z " fill="#2D72D5" transform="translate(144,156)"/>
<path d="M0 0 C1.23556641 0.01740234 1.23556641 0.01740234 2.49609375 0.03515625 C3.32238281 0.04417969 4.14867187 0.05320312 5 0.0625 C5.63808594 0.07410156 6.27617187 0.08570312 6.93359375 0.09765625 C6.60359375 1.08765625 6.27359375 2.07765625 5.93359375 3.09765625 C2.55859375 3.22265625 2.55859375 3.22265625 -1.06640625 3.09765625 C-1.72640625 2.43765625 -2.38640625 1.77765625 -3.06640625 1.09765625 C-2.06640625 0.09765625 -2.06640625 0.09765625 0 0 Z " fill="#4284CE" transform="translate(372.06640625,115.90234375)"/>
<path d="M0 0 C1 4 1 4 0 7 C-0.66 6.34 -1.32 5.68 -2 5 C-4.65537372 4.43479997 -7.29144713 4.26211802 -10 4 C-10 3.67 -10 3.34 -10 3 C-5.05 1.515 -5.05 1.515 0 0 Z " fill="#4783C5" transform="translate(314,86)"/>
<path d="M0 0 C0.99 0.33 1.98 0.66 3 1 C3 1.66 3 2.32 3 3 C4.98 3 6.96 3 9 3 C9.33 3.66 9.66 4.32 10 5 C7 7 7 7 4 7 C2.02 3.535 2.02 3.535 0 0 Z " fill="#4480C1" transform="translate(283,78)"/>
<path d="M0 0 C3.63 0 7.26 0 11 0 C11.33 1.32 11.66 2.64 12 4 C11.01 4 10.02 4 9 4 C8.34 3.34 7.68 2.68 7 2 C4.67724823 1.59952556 2.34260643 1.2602896 0 1 C0 0.67 0 0.34 0 0 Z " fill="#4A8CB8" transform="translate(408,63)"/>
<path d="M0 0 C0.99 0.33 1.98 0.66 3 1 C3 1.66 3 2.32 3 3 C4.98 3.66 6.96 4.32 9 5 C9 5.99 9 6.98 9 8 C5.08158173 6.69386058 2.67359191 5.16870152 0 2 C0 1.34 0 0.68 0 0 Z " fill="#4D7DC3" transform="translate(548,118)"/>
<path d="M0 0 C0.66 0.33 1.32 0.66 2 1 C1.34 4.3 0.68 7.6 0 11 C-0.66 11 -1.32 11 -2 11 C-1.34 7.37 -0.68 3.74 0 0 Z " fill="#408FCA" transform="translate(281,100)"/>
<path d="M0 0 C0.33 0 0.66 0 1 0 C1.33 3.3 1.66 6.6 2 10 C1.01 10 0.02 10 -1 10 C-1 10.99 -1 11.98 -1 13 C-1.66 13 -2.32 13 -3 13 C-2.690625 12.154375 -2.38125 11.30875 -2.0625 10.4375 C-0.98461179 6.9502146 -0.43418696 3.61822465 0 0 Z " fill="#4A86BE" transform="translate(726,98)"/>
<path d="M0 0 C4.83256305 0.41421969 6.82679218 2.46413986 10 6 C9.484375 5.690625 8.96875 5.38125 8.4375 5.0625 C5.33334577 3.70940713 2.34884993 3.38640576 -1 3 C-0.67 2.01 -0.34 1.02 0 0 Z " fill="#4C82C4" transform="translate(319,64)"/>
<path d="M0 0 C1.98 0.99 1.98 0.99 4 2 C4 4.31 4 6.62 4 9 C3.34 9 2.68 9 2 9 C1.34 6.03 0.68 3.06 0 0 Z " fill="#4783C2" transform="translate(652,79)"/>
<path d="M0 0 C2.48046875 0.14453125 2.48046875 0.14453125 5.1875 0.8125 C6.53908203 1.13154297 6.53908203 1.13154297 7.91796875 1.45703125 C8.60503906 1.63621094 9.29210937 1.81539062 10 2 C10 2.33 10 2.66 10 3 C5.71 3 1.42 3 -3 3 C-2.01 2.01 -1.02 1.02 0 0 Z " fill="#4385CC" transform="translate(142,156)"/>
<path d="M0 0 C2.5625 1.25 2.5625 1.25 5 3 C5.33 3.99 5.66 4.98 6 6 C0.25 4.375 0.25 4.375 -2 1 C-1.34 0.67 -0.68 0.34 0 0 Z " fill="#4782C8" transform="translate(351,121)"/>
<path d="M0 0 C0 0.99 0 1.98 0 3 C-2.31 3.33 -4.62 3.66 -7 4 C-6.67 3.01 -6.34 2.02 -6 1 C-3.90006779 0.25486277 -2.22568901 0 0 0 Z " fill="#4482C7" transform="translate(671,97)"/>
<path d="M0 0 C0.33 1.32 0.66 2.64 1 4 C-1.31 5.32 -3.62 6.64 -6 8 C-4.55746343 4.63408134 -2.66735273 2.48952921 0 0 Z " fill="#3F7ABC" transform="translate(129,85)"/>
<path d="M0 0 C0.66 0.33 1.32 0.66 2 1 C1.34 3.97 0.68 6.94 0 10 C-0.66 9.67 -1.32 9.34 -2 9 C-1.34 6.03 -0.68 3.06 0 0 Z " fill="#386ECD" transform="translate(178,136)"/>
<path d="M0 0 C1.32 0.33 2.64 0.66 4 1 C4 2.98 4 4.96 4 7 C3.34 7 2.68 7 2 7 C0 1.125 0 1.125 0 0 Z " fill="#4284CE" transform="translate(696,81)"/>
<path d="M0 0 C2.35448165 2.55068845 2.98327924 3.71017358 3.1875 7.25 C3.125625 8.1575 3.06375 9.065 3 10 C2.34 9.67 1.68 9.34 1 9 C0.5859375 6.93359375 0.5859375 6.93359375 0.375 4.4375 C0.30023438 3.61121094 0.22546875 2.78492187 0.1484375 1.93359375 C0.09945313 1.29550781 0.05046875 0.65742187 0 0 Z " fill="#4D7FC0" transform="translate(280,112)"/>
<path d="M0 0 C0.33 0.66 0.66 1.32 1 2 C-1.3125 4.5 -1.3125 4.5 -4 7 C-4.99 7 -5.98 7 -7 7 C-4.69 4.69 -2.38 2.38 0 0 Z " fill="#417ABC" transform="translate(122,93)"/>
<path d="M0 0 C0.66 0.33 1.32 0.66 2 1 C-0.46153846 5.8 -0.46153846 5.8 -3.1875 6.8125 C-3.785625 6.874375 -4.38375 6.93625 -5 7 C-3.70700306 4.11562221 -2.34058637 2.12780579 0 0 Z " fill="#3E79BD" transform="translate(135,78)"/>
<path d="M0 0 C2.475 0.495 2.475 0.495 5 1 C4.34 2.32 3.68 3.64 3 5 C1.5 3.625 1.5 3.625 0 2 C0 1.34 0 0.68 0 0 Z " fill="#3D80C0" transform="translate(464,63)"/>
</svg>
