<?xml version="1.0" encoding="UTF-8"?>
<svg version="1.1" xmlns="http://www.w3.org/2000/svg" width="203" height="197">
<path d="M0 0 C1.08711273 -0.00671722 2.17422546 -0.01343445 3.29428101 -0.02035522 C6.87681692 -0.03930384 10.45916518 -0.04325786 14.04174805 -0.04541016 C16.5412758 -0.05184018 19.0408028 -0.0585687 21.54032898 -0.06558228 C26.77641001 -0.07754715 32.01244373 -0.08134979 37.24853516 -0.08007812 C42.6132392 -0.07901033 47.97765512 -0.09308878 53.34228516 -0.12109375 C59.83431413 -0.15449612 66.32608457 -0.16818736 72.81819725 -0.16685867 C75.28564098 -0.16921209 77.75308763 -0.17802092 80.22048378 -0.19352341 C83.67853798 -0.21321628 87.13567971 -0.20733153 90.59375 -0.1953125 C91.60343338 -0.20655151 92.61311676 -0.21779053 93.65339661 -0.22937012 C103.38489178 -0.14383499 111.18809555 2.73896648 118.29956055 9.41943359 C122.43974149 13.999449 125.10123583 19.14410505 125.13813782 25.38711548 C125.14887077 26.63591492 125.14887077 26.63591492 125.15982056 27.90994263 C125.16250946 28.82009125 125.16519836 29.73023987 125.16796875 30.66796875 C125.17453995 31.62930725 125.18111115 32.59064575 125.18788147 33.58111572 C125.2076187 36.76810788 125.21927954 39.95505286 125.22924805 43.14208984 C125.23332357 44.2313615 125.2373991 45.32063316 125.24159813 46.44291306 C125.26246307 52.21096355 125.27676162 57.97899024 125.28613281 63.74707031 C125.29718359 69.69542906 125.33156724 75.64341233 125.37130451 81.59163857 C125.39749611 86.1728483 125.40582705 90.75396903 125.40941429 95.33524704 C125.41427552 97.52721053 125.42587621 99.71917017 125.44445229 101.91106033 C125.46889181 104.98657881 125.46786938 108.06113218 125.4609375 111.13671875 C125.48015259 112.4837236 125.48015259 112.4837236 125.49975586 113.85794067 C125.43822614 121.38500154 123.35015968 128.6601726 117.8659668 134.10302734 C110.24629136 141.18078621 100.39219205 142.46781637 90.41210938 142.32470703 C89.55937439 142.31682159 88.7066394 142.30893616 87.82806396 142.30081177 C85.98053404 142.28364726 84.13302216 142.2644443 82.285532 142.24343109 C78.34744504 142.20129575 74.40931726 142.1778779 70.47108746 142.15340042 C63.14571996 142.10774102 55.82061448 142.05490619 48.49560547 141.96826172 C43.39347418 141.90863329 38.29168377 141.87383394 33.18924522 141.85507965 C31.25204565 141.84338712 29.31487747 141.82265357 27.37787819 141.79244232 C12.92541003 141.4142944 12.92541003 141.4142944 -0.0090332 147.29052734 C-1.29875778 148.10144197 -2.58902509 148.91149487 -3.88012695 149.72021484 C-5.07247173 150.53012789 -6.26127612 151.34527686 -7.4465332 152.16552734 C-8.73527237 153.03579801 -10.02433757 153.90558606 -11.3137207 154.77490234 C-13.61696624 156.33896676 -15.91219748 157.91324696 -18.2043457 159.49365234 C-19.15051758 160.12787109 -20.09668945 160.76208984 -21.0715332 161.41552734 C-21.88750977 161.97498047 -22.70348633 162.53443359 -23.54418945 163.11083984 C-26.61461222 164.58036072 -28.64357319 164.7197719 -32.0090332 164.29052734 C-33.66473484 163.11056519 -33.66473484 163.11056519 -35.0090332 161.29052734 C-35.38934994 158.81253052 -35.38934994 158.81253052 -35.39671326 155.80273438 C-35.40661789 154.66176804 -35.41652252 153.5208017 -35.42672729 152.34526062 C-35.42222565 151.09227676 -35.417724 149.83929291 -35.41308594 148.54833984 C-35.41994919 147.22933182 -35.42681244 145.91032379 -35.43388367 144.55134583 C-35.45185906 140.92892943 -35.45063703 137.30675474 -35.44494128 133.6843071 C-35.44185173 130.65556056 -35.44794019 127.6268606 -35.45398003 124.59812069 C-35.46804175 117.44395522 -35.466454 110.28990908 -35.45507812 103.13574219 C-35.44363105 95.77456596 -35.45761094 88.41375551 -35.4844746 81.05262756 C-35.50670582 74.72206061 -35.51325129 68.39160782 -35.50739819 62.06100464 C-35.50404071 58.28514871 -35.50636078 54.50952646 -35.52364922 50.73370361 C-35.539232 47.17456036 -35.53503917 43.61595242 -35.51634407 40.05682945 C-35.51095816 38.14455177 -35.52509121 36.23224943 -35.54003906 34.32002258 C-35.46551716 25.50297163 -33.89040649 18.09281616 -29.3215332 10.47802734 C-20.35625889 1.99736245 -12.00083432 -0.0107085 0 0 Z M71.5534668 41.79052734 C71.07538574 42.3407959 70.59730469 42.89106445 70.10473633 43.45800781 C68.71902794 45.05711809 67.35457546 46.67258033 65.9909668 48.29052734 C64.78523846 49.66781222 63.57733888 51.04320372 62.3659668 52.41552734 C61.82327148 53.03943359 61.28057617 53.66333984 60.72143555 54.30615234 C54.79143307 61.10624548 48.71702547 67.66852172 42.25268555 73.96630859 C39.9876903 76.29389438 37.97684229 78.72297664 35.9909668 81.29052734 C32.12925091 80.71744165 30.19103678 78.97104822 27.3659668 76.35302734 C26.49456055 75.54994141 25.6231543 74.74685547 24.7253418 73.91943359 C21.12560239 70.45854128 17.6519661 66.88389469 14.2175293 63.25927734 C12.00408046 61.30212258 10.91353255 60.47694615 7.9909668 60.29052734 C3.26522973 62.75184873 0.41448461 65.54043243 -2.0090332 70.29052734 C-1.70692866 74.43726207 -0.49231148 76.26299415 2.5612793 78.99755859 C3.2934668 79.66722656 4.0256543 80.33689453 4.7800293 81.02685547 C5.93631836 82.05456055 5.93631836 82.05456055 7.1159668 83.10302734 C12.80349925 88.2267096 18.05252592 93.43878015 22.9909668 99.29052734 C24.32434727 100.80903446 25.67367623 102.31406355 27.0534668 103.79052734 C27.66319336 104.46083984 28.27291992 105.13115234 28.90112305 105.82177734 C31.78458274 107.84828359 33.51859914 107.65864568 36.9909668 107.29052734 C39.40713224 105.71195683 39.40713224 105.71195683 41.48706055 103.41552734 C42.29336914 102.59439453 43.09967773 101.77326172 43.93041992 100.92724609 C44.75477539 100.05712891 45.57913086 99.18701172 46.4284668 98.29052734 C47.65919922 97.03175781 47.65919922 97.03175781 48.91479492 95.74755859 C53.22664841 91.30837982 57.38959241 86.76567202 61.43359375 82.08203125 C63.68598152 79.49102616 66.02594548 76.99021239 68.3659668 74.47802734 C72.74251034 69.74507791 76.87746039 64.86320709 80.9128418 59.83349609 C83.39223745 56.79949878 86.00591621 53.90876443 88.6784668 51.04443359 C90.195462 49.01725845 90.86439014 47.83179711 90.9909668 45.29052734 C89.61784276 43.09200693 89.61784276 43.09200693 87.6159668 41.10302734 C86.96885742 40.40822266 86.32174805 39.71341797 85.6550293 38.99755859 C83.48497879 36.5449179 83.48497879 36.5449179 80.26831055 35.88427734 C75.90279848 36.42541352 74.2194879 38.56344089 71.5534668 41.79052734 Z " fill="#4087DB" transform="translate(56.009033203125,16.70947265625)"/>
<path d="M0 0 C1.08711273 -0.00671722 2.17422546 -0.01343445 3.29428101 -0.02035522 C6.87681692 -0.03930384 10.45916518 -0.04325786 14.04174805 -0.04541016 C16.5412758 -0.05184018 19.0408028 -0.0585687 21.54032898 -0.06558228 C26.77641001 -0.07754715 32.01244373 -0.08134979 37.24853516 -0.08007812 C42.6132392 -0.07901033 47.97765512 -0.09308878 53.34228516 -0.12109375 C59.83431413 -0.15449612 66.32608457 -0.16818736 72.81819725 -0.16685867 C75.28564098 -0.16921209 77.75308763 -0.17802092 80.22048378 -0.19352341 C83.67853798 -0.21321628 87.13567971 -0.20733153 90.59375 -0.1953125 C91.60343338 -0.20655151 92.61311676 -0.21779053 93.65339661 -0.22937012 C103.38489178 -0.14383499 111.18809555 2.73896648 118.29956055 9.41943359 C122.43974149 13.999449 125.10123583 19.14410505 125.13813782 25.38711548 C125.14887077 26.63591492 125.14887077 26.63591492 125.15982056 27.90994263 C125.16250946 28.82009125 125.16519836 29.73023987 125.16796875 30.66796875 C125.17453995 31.62930725 125.18111115 32.59064575 125.18788147 33.58111572 C125.2076187 36.76810788 125.21927954 39.95505286 125.22924805 43.14208984 C125.23332357 44.2313615 125.2373991 45.32063316 125.24159813 46.44291306 C125.26246307 52.21096355 125.27676162 57.97899024 125.28613281 63.74707031 C125.29718359 69.69542906 125.33156724 75.64341233 125.37130451 81.59163857 C125.39749611 86.1728483 125.40582705 90.75396903 125.40941429 95.33524704 C125.41427552 97.52721053 125.42587621 99.71917017 125.44445229 101.91106033 C125.46889181 104.98657881 125.46786938 108.06113218 125.4609375 111.13671875 C125.48015259 112.4837236 125.48015259 112.4837236 125.49975586 113.85794067 C125.43822614 121.38500154 123.35015968 128.6601726 117.8659668 134.10302734 C110.24629136 141.18078621 100.39219205 142.46781637 90.41210938 142.32470703 C89.55937439 142.31682159 88.7066394 142.30893616 87.82806396 142.30081177 C85.98053404 142.28364726 84.13302216 142.2644443 82.285532 142.24343109 C78.34744504 142.20129575 74.40931726 142.1778779 70.47108746 142.15340042 C63.14571996 142.10774102 55.82061448 142.05490619 48.49560547 141.96826172 C43.39347418 141.90863329 38.29168377 141.87383394 33.18924522 141.85507965 C31.25204565 141.84338712 29.31487747 141.82265357 27.37787819 141.79244232 C12.92541003 141.4142944 12.92541003 141.4142944 -0.0090332 147.29052734 C-1.29875778 148.10144197 -2.58902509 148.91149487 -3.88012695 149.72021484 C-5.07247173 150.53012789 -6.26127612 151.34527686 -7.4465332 152.16552734 C-8.73527237 153.03579801 -10.02433757 153.90558606 -11.3137207 154.77490234 C-13.61696624 156.33896676 -15.91219748 157.91324696 -18.2043457 159.49365234 C-19.15051758 160.12787109 -20.09668945 160.76208984 -21.0715332 161.41552734 C-21.88750977 161.97498047 -22.70348633 162.53443359 -23.54418945 163.11083984 C-26.61461222 164.58036072 -28.64357319 164.7197719 -32.0090332 164.29052734 C-33.66515541 163.11140633 -33.66515541 163.11140633 -35.0090332 161.29052734 C-35.38655663 158.80694389 -35.38655663 158.80694389 -35.38998413 155.78927612 C-35.3984436 154.64541946 -35.40690308 153.50156281 -35.4156189 152.32304382 C-35.4095462 151.06691788 -35.40347351 149.81079193 -35.3972168 148.51660156 C-35.40128184 147.18102082 -35.40662334 145.84544344 -35.41314697 144.50987244 C-35.42684256 140.87931269 -35.42151073 137.24900827 -35.41200972 133.61844397 C-35.40441522 129.81496841 -35.41145902 126.01151475 -35.41616821 122.20803833 C-35.42163038 115.81394532 -35.4144263 109.41995615 -35.40014648 103.02587891 C-35.38386087 95.64881071 -35.38907668 88.27199179 -35.4056257 80.89492977 C-35.41927758 74.55420748 -35.42114094 68.2135599 -35.41330969 61.87282765 C-35.40864806 58.08925814 -35.40796566 54.30580537 -35.41791916 50.5222435 C-35.42663906 46.9582497 -35.42047623 43.39457385 -35.40323639 39.83061409 C-35.39742853 37.91080783 -35.40624712 35.99097443 -35.4156189 34.07118225 C-35.36520775 27.15396217 -34.60561099 21.71820779 -32.0090332 15.29052734 C-31.12002248 18.45145436 -31.12092922 20.13282431 -32.0090332 23.29052734 C-32.0090332 24.61052734 -32.0090332 25.93052734 -32.0090332 27.29052734 C-31.3490332 27.29052734 -30.6890332 27.29052734 -30.0090332 27.29052734 C-30.3390332 28.28052734 -30.6690332 29.27052734 -31.0090332 30.29052734 C-31.09964894 32.09201452 -31.13098778 33.89672128 -31.12928772 35.70048523 C-31.13066238 36.82369171 -31.13203705 37.94689819 -31.13345337 39.10414124 C-31.12985809 40.33700363 -31.12626282 41.56986603 -31.12255859 42.84008789 C-31.12270462 44.13775085 -31.12285065 45.43541382 -31.1230011 46.7723999 C-31.12328834 50.33203989 -31.1174034 53.89164628 -31.11042714 57.45127845 C-31.10418146 61.17087112 -31.10358884 64.89046454 -31.10240173 68.61006165 C-31.09929201 75.65420507 -31.09108344 82.69833301 -31.08105224 89.74246961 C-31.06987999 97.7617315 -31.06437785 105.78099412 -31.05935681 113.80026186 C-31.04890054 130.29702609 -31.03130801 146.79377474 -31.0090332 163.29052734 C-29.72362709 162.66217352 -28.43983713 162.03051287 -27.15673828 161.39746094 C-26.44165604 161.04606049 -25.72657379 160.69466003 -24.98982239 160.33261108 C-22.64533457 159.09918723 -20.70913621 157.63370146 -18.6965332 155.91552734 C-14.56102256 152.57420646 -10.23603361 150.10317952 -5.5324707 147.64599609 C-3.39987911 146.50047089 -1.43105491 145.29501195 0.5534668 143.91552734 C2.9909668 142.29052734 2.9909668 142.29052734 4.9909668 142.29052734 C4.9909668 141.63052734 4.9909668 140.97052734 4.9909668 140.29052734 C8.36490586 138.60355781 12.19184179 139.13721936 15.90356445 139.1328125 C16.82734894 139.12773178 17.75113342 139.12265106 18.70291138 139.11741638 C20.714169 139.10669759 22.72543867 139.09808336 24.73671341 139.09129715 C27.92320254 139.07952269 31.10955525 139.06007156 34.29598999 139.03817749 C43.35784338 138.97652663 52.41968461 138.92258439 61.48168945 138.88916016 C67.02137282 138.86817572 72.56081053 138.8328365 78.10035324 138.78840256 C80.20935542 138.77426635 82.31840111 138.76552551 84.42744827 138.76234818 C87.38589271 138.75742132 90.34368978 138.73421546 93.30200195 138.70703125 C94.16776855 138.71003738 95.03353516 138.71304352 95.92553711 138.71614075 C104.64185228 138.59762864 110.94051654 136.0292042 117.36206055 130.06005859 C119.32571649 127.9268784 120.30560169 126.10813944 120.9909668 123.29052734 C121.25152422 122.35633579 121.25152422 122.35633579 121.51734543 121.40327168 C121.99877994 119.25567423 122.12210243 117.37199677 122.13140869 115.17411804 C122.13711884 114.36256256 122.14282898 113.55100708 122.14871216 112.71485901 C122.14983002 111.83321579 122.15094788 110.95157257 122.15209961 110.04321289 C122.15706451 109.10777649 122.16202942 108.17234009 122.16714478 107.20855713 C122.18174636 104.11477929 122.18856504 101.02105273 122.1940918 97.92724609 C122.19984484 95.77496845 122.20560256 93.62269082 122.21136475 91.47041321 C122.22186899 86.95707969 122.22771545 82.44376395 122.23120117 77.93041992 C122.23668504 72.15347234 122.26071336 66.37676055 122.28917313 60.59988689 C122.3078169 56.15344053 122.31300604 51.70705077 122.31453705 47.26056862 C122.3175601 45.1311597 122.32557687 43.0017517 122.33872223 40.87238121 C122.35581903 37.89008119 122.35389349 34.90835484 122.34741211 31.92602539 C122.36123428 30.6126696 122.36123428 30.6126696 122.37533569 29.27278137 C122.33825041 23.81225814 121.34529819 20.20604864 118.9909668 15.29052734 C118.9909668 14.30052734 118.9909668 13.31052734 118.9909668 12.29052734 C118.4340918 12.04302734 117.8772168 11.79552734 117.3034668 11.54052734 C114.9909668 10.29052734 114.9909668 10.29052734 112.5534668 8.29052734 C108.51710057 5.14019273 105.01539854 4.04287887 99.92582703 4.02310181 C98.92923065 4.01457184 97.93263428 4.00604187 96.90583801 3.99725342 C95.28254829 3.99861298 95.28254829 3.99861298 93.62646484 4 C92.47791016 3.99328278 91.32935547 3.98656555 90.14599609 3.97964478 C86.34818193 3.96064343 82.5505443 3.95673941 78.75268555 3.95458984 C76.11098661 3.94816324 73.46928838 3.94143498 70.82759094 3.93441772 C65.28869478 3.92163673 59.74984641 3.91865177 54.2109375 3.91992188 C47.82213633 3.92112247 41.43367343 3.90003395 35.04495782 3.86843455 C28.88492384 3.83905921 22.7250513 3.83194772 16.56495094 3.83314133 C13.9507185 3.83078324 11.33648348 3.82194813 8.72229576 3.80647659 C5.06246388 3.78684554 1.40349867 3.79264454 -2.25634766 3.8046875 C-3.87052834 3.78782898 -3.87052834 3.78782898 -5.51731873 3.77062988 C-12.21048714 3.82649627 -16.17388507 5.06766219 -22.0090332 8.29052734 C-22.9990332 7.96052734 -23.9890332 7.63052734 -25.0090332 7.29052734 C-16.8040629 0.92748915 -10.20918611 -0.00910979 0 0 Z " fill="#397CCA" transform="translate(56.009033203125,16.70947265625)"/>
<path d="M0 0 C0.88901072 3.16092701 0.88810398 4.84229696 0 8 C0 9.32 0 10.64 0 12 C0.66 12 1.32 12 2 12 C1.67 12.99 1.34 13.98 1 15 C0.67 14.67 0.34 14.34 0 14 C-0.33 57.89 -0.66 101.78 -1 147 C-1.66 146.67 -2.32 146.34 -3 146 C-3.07017676 128.29287893 -3.12303056 110.58579411 -3.15543652 92.87856388 C-3.17088516 84.65621852 -3.19193624 76.43395972 -3.22631836 68.21166992 C-3.2562822 61.04254977 -3.27558955 53.87349234 -3.28226548 46.70431131 C-3.28616595 42.91059918 -3.29529047 39.11706641 -3.31719017 35.32341194 C-3.33766593 31.74719728 -3.34381162 28.17123461 -3.33932304 24.59496689 C-3.34053222 22.66793847 -3.35661604 20.74093702 -3.3732605 18.8139801 C-3.34870155 11.8755833 -2.61104274 6.44522789 0 0 Z " fill="#447ECC" transform="translate(24,32)"/>
<path d="M0 0 C1.32 0.33 2.64 0.66 4 1 C3.40445313 1.25910156 2.80890625 1.51820312 2.1953125 1.78515625 C-0.17692182 3.09790513 -1.40418309 4.35781927 -3.125 6.4375 C-6.0173031 9.85736911 -8.97595384 13.19560914 -12 16.5 C-14.85930933 19.63019127 -17.68346676 22.77705463 -20.4375 26 C-23.35011832 29.36230998 -26.46261517 32.49986291 -29.625 35.625 C-33.31539884 39.27478923 -36.7993363 42.91639458 -40 47 C-43.86171589 46.42691431 -45.79993002 44.68052088 -48.625 42.0625 C-49.49640625 41.25941406 -50.3678125 40.45632812 -51.265625 39.62890625 C-54.86536441 36.16801393 -58.3390007 32.59336734 -61.7734375 28.96875 C-63.98751353 27.01104066 -65.07541361 26.18015933 -68 26 C-72.30976613 28.28681468 -75.02593282 30.50351364 -77 35 C-77.25196129 37.70953551 -77.25196129 37.70953551 -77 40 C-77.99 39.67 -78.98 39.34 -80 39 C-80.34934248 36.06552319 -80.51495218 33.85632498 -78.95703125 31.265625 C-77.625 29.625 -77.625 29.625 -75 27 C-74.34 27 -73.68 27 -73 27 C-73 26.34 -73 25.68 -73 25 C-70.50129158 23.36622911 -69.17594771 22.98984917 -66.15625 23.1640625 C-62.34931173 24.17233575 -60.81870513 25.6032143 -58.125 28.4375 C-57.34382813 29.24058594 -56.56265625 30.04367188 -55.7578125 30.87109375 C-54 33 -54 33 -54 35 C-53.41734375 35.268125 -52.8346875 35.53625 -52.234375 35.8125 C-49.97213399 37.01480991 -48.19423682 38.33825913 -46.25 40 C-45.32960938 40.7734375 -45.32960938 40.7734375 -44.390625 41.5625 C-43 43 -43 43 -43 45 C-39.88667752 44.33131686 -39.88667752 44.33131686 -38.8125 41.9375 C-38.544375 41.298125 -38.27625 40.65875 -38 40 C-37.34 40 -36.68 40 -36 40 C-35.690625 39.38125 -35.38125 38.7625 -35.0625 38.125 C-34.375 36.75 -33.6875 35.375 -33 34 C-32.34 34 -31.68 34 -31 34 C-31 33.34 -31 32.68 -31 32 C-29.4609375 30.5546875 -29.4609375 30.5546875 -27.375 28.875 C-23.77123155 25.83153477 -21.06798748 22.68821688 -18.421875 18.796875 C-16.81153469 16.76182956 -15.1743404 15.40897258 -13 14 C-12.34 14 -11.68 14 -11 14 C-10.9175 13.38125 -10.835 12.7625 -10.75 12.125 C-9.76174558 9.32494581 -8.59640015 9.25886068 -6 8 C-4.73195434 5.9664052 -4.73195434 5.9664052 -4 4 C-3.34 4 -2.68 4 -2 4 C-1.34 2.68 -0.68 1.36 0 0 Z " fill="#3B77C0" transform="translate(132,52)"/>
<path d="M0 0 C0.33 0 0.66 0 1 0 C1.33 44.55 1.66 89.1 2 135 C8.71335345 131.745032 8.71335345 131.745032 14.3125 127.625 C18.44970054 124.28231375 22.77292586 121.80722288 27.484375 119.359375 C29.61293708 118.20915822 31.49594047 116.994155 33.4375 115.5625 C36 114 36 114 38.16015625 114.40234375 C38.76730469 114.59957031 39.37445313 114.79679687 40 115 C39.04222656 115.59425781 38.08445313 116.18851562 37.09765625 116.80078125 C35.75258727 117.63799369 34.40753668 118.47523567 33.0625 119.3125 C32.3504541 119.75384277 31.6384082 120.19518555 30.90478516 120.64990234 C27.01201431 123.07428026 23.16244286 125.54432435 19.36328125 128.11328125 C18.61232178 128.61625732 17.8613623 129.1192334 17.08764648 129.63745117 C15.63808498 130.61198259 14.19582298 131.59748121 12.76196289 132.5949707 C8.72280584 135.29539106 6.03786229 136.71969461 1 136 C0 135 0 135 -0.12304783 132.76860714 C-0.12212604 131.77399251 -0.12120424 130.77937788 -0.12025452 129.75462341 C-0.12162918 128.61733795 -0.12300385 127.48005249 -0.12442017 126.30830383 C-0.12082489 125.04954941 -0.11722961 123.79079498 -0.11352539 122.49389648 C-0.11367142 121.17701843 -0.11381744 119.86014038 -0.1139679 118.50335693 C-0.11425587 114.88161732 -0.10835924 111.25991054 -0.10139394 107.63817859 C-0.0951603 103.85718116 -0.09455659 100.07618305 -0.09336853 96.29518127 C-0.09025524 89.1305571 -0.08204189 81.9659481 -0.07201904 74.80133063 C-0.06085782 66.64668838 -0.05534743 58.49204543 -0.05032361 50.33739746 C-0.03985928 33.55825607 -0.02225989 16.77912997 0 0 Z " fill="#2D75CA" transform="translate(23,45)"/>
<path d="M0 0 C0.495 0.99 0.495 0.99 1 2 C0.34 2.99 -0.32 3.98 -1 5 C-1.66 5 -2.32 5 -3 5 C-3.10650879 5.59546631 -3.21301758 6.19093262 -3.32275391 6.80444336 C-4.09357873 9.30337184 -4.97321979 10.3224335 -6.8359375 12.12890625 C-7.40570313 12.68900391 -7.97546875 13.24910156 -8.5625 13.82617188 C-9.160625 14.39916016 -9.75875 14.97214844 -10.375 15.5625 C-10.96539062 16.13935547 -11.55578125 16.71621094 -12.1640625 17.31054688 C-13.26662371 18.387034 -14.37224594 19.46040161 -15.48193359 20.52954102 C-16.23337646 21.25741821 -16.23337646 21.25741821 -17 22 C-17.53834473 22.51554443 -18.07668945 23.03108887 -18.63134766 23.56225586 C-20.1090026 24.97401933 -20.1090026 24.97401933 -21 27 C-21.66 27 -22.32 27 -23 27 C-23.33 27.99 -23.66 28.98 -24 30 C-26.5346018 32.63208648 -27.86374183 32.98804753 -31.5625 33.3125 C-35 33 -35 33 -38 31 C-38 30.34 -38 29.68 -38 29 C-38.66 29 -39.32 29 -40 29 C-39.505 27.515 -39.505 27.515 -39 26 C-38.46375 26.66 -37.9275 27.32 -37.375 28 C-35.14358446 30.24859928 -35.14358446 30.24859928 -32.11889648 30.35351562 C-28.34737431 29.92602724 -27.32524264 29.04249943 -24.72265625 26.34375 C-23.96146484 25.56773438 -23.20027344 24.79171875 -22.41601562 23.9921875 C-21.63935547 23.16976562 -20.86269531 22.34734375 -20.0625 21.5 C-19.28970703 20.70851563 -18.51691406 19.91703125 -17.72070312 19.1015625 C-13.49077769 14.73934016 -9.41139962 10.26778529 -5.45068359 5.66015625 C-3.72108815 3.68081444 -1.89590337 1.82006723 0 0 Z " fill="#3A78C3" transform="translate(122,93)"/>
<path d="M0 0 C0.6084375 0.1959375 1.216875 0.391875 1.84375 0.59375 C0.88597656 1.18800781 -0.07179687 1.78226563 -1.05859375 2.39453125 C-2.40366273 3.23174369 -3.74871332 4.06898567 -5.09375 4.90625 C-5.8057959 5.34759277 -6.5178418 5.78893555 -7.25146484 6.24365234 C-11.14423569 8.66803026 -14.99380714 11.13807435 -18.79296875 13.70703125 C-19.54392822 14.21000732 -20.2948877 14.7129834 -21.06860352 15.23120117 C-22.51816502 16.20573259 -23.96042702 17.19123121 -25.39428711 18.1887207 C-29.46497986 20.91022458 -32.08163013 22.2102926 -37.15625 21.59375 C-37.48625 20.93375 -37.81625 20.27375 -38.15625 19.59375 C-37.228125 19.59375 -36.3 19.59375 -35.34375 19.59375 C-30.35055896 18.89189584 -27.03248904 15.78633455 -23.1328125 12.7890625 C-19.20973149 9.89566155 -15.06529322 7.53274462 -10.82421875 5.140625 C-8.65798665 3.88465441 -6.66877417 2.57399448 -4.65625 1.09375 C-2.15625 -0.40625 -2.15625 -0.40625 0 0 Z " fill="#3975BC" transform="translate(61.15625,159.40625)"/>
<path d="M0 0 C0.66 0.33 1.32 0.66 2 1 C1.37833802 7.71394941 -0.65342113 11.71998736 -5.64453125 16.265625 C-10.12445237 19.56427339 -15.1350817 22.41954871 -20.80078125 21.58984375 C-21.52652344 21.39519531 -22.25226563 21.20054687 -23 21 C-20.43138869 19.60866887 -18.05989302 18.70229946 -15.25 17.8125 C-9.46452202 15.678157 -4.48566509 11.77754779 -1.5625 6.3125 C-1.376875 5.549375 -1.19125 4.78625 -1 4 C-0.690625 2.8553125 -0.690625 2.8553125 -0.375 1.6875 C-0.25125 1.130625 -0.1275 0.57375 0 0 Z " fill="#3972C3" transform="translate(178,136)"/>
<path d="M0 0 C4.23394447 1.56812758 6.47032152 4.34601998 9 8 C9.74852683 11.99214307 9.18910708 13.63579377 7.3125 17.25 C4.93404776 20.07842969 3.50811852 21.02552263 0 22 C0 22.66 0 23.32 0 24 C-0.66 24 -1.32 24 -2 24 C-0.13460005 19.8028501 2.71611594 16.73274278 5.734375 13.31640625 C7.31701067 11.03898507 7.31701067 11.03898507 6.3671875 8.421875 C5.16352006 6.28966411 3.99107236 4.51621346 2.375 2.6875 C1.59125 1.800625 0.8075 0.91375 0 0 Z " fill="#477EBF" transform="translate(139,53)"/>
<path d="M0 0 C6.12329055 4.95074555 13.43322076 10.86644151 17 18 C13.43235179 17.42380903 11.74840503 16.13030516 9.25 13.5625 C8.63640625 12.94503906 8.0228125 12.32757813 7.390625 11.69140625 C6 10 6 10 6 8 C5.01 7.67 4.02 7.34 3 7 C1.62665383 4.71108972 0.84749184 2.54247553 0 0 Z " fill="#3E76BC" transform="translate(65,101)"/>
<path d="M0 0 C0.66 0.33 1.32 0.66 2 1 C-1.81684178 7.67947311 -5.21191907 11.47541952 -12 15 C-10.38462556 11.10082032 -7.72075127 8.28706228 -4.875 5.25 C-4.40707031 4.74339844 -3.93914062 4.23679687 -3.45703125 3.71484375 C-2.30873459 2.47280859 -1.15491328 1.23588506 0 0 Z " fill="#3D7AC0" transform="translate(135,78)"/>
<path d="M0 0 C8.25 0.66 16.5 1.32 25 2 C25 2.33 25 2.66 25 3 C17.08 3 9.16 3 1 3 C0.67 2.01 0.34 1.02 0 0 Z " fill="#4480CC" transform="translate(79,156)"/>
<path d="M0 0 C0 0.33 0 0.66 0 1 C-0.60328125 1.19335938 -1.2065625 1.38671875 -1.828125 1.5859375 C-2.62734375 1.84632812 -3.4265625 2.10671875 -4.25 2.375 C-5.03890625 2.63023438 -5.8278125 2.88546875 -6.640625 3.1484375 C-9.01167192 3.93432998 -9.01167192 3.93432998 -11.109375 5.1640625 C-13 6 -13 6 -16 5 C-14.89932004 4.18278283 -13.79430269 3.37140549 -12.6875 2.5625 C-12.07261719 2.11003906 -11.45773438 1.65757813 -10.82421875 1.19140625 C-6.95891497 -1.33304268 -4.35598055 -0.87119611 0 0 Z " fill="#3B78C0" transform="translate(47,19)"/>
<path d="M0 0 C2.96175123 0.61277612 4.38058783 1.25372522 7 3 C7 3.66 7 4.32 7 5 C8.65 4.67 10.3 4.34 12 4 C11.01 5.485 11.01 5.485 10 7 C5.61308455 6.49381745 3.15608721 3.86917019 0 1 C0 0.67 0 0.34 0 0 Z " fill="#4272B7" transform="translate(82,92)"/>
<path d="M0 0 C0.33 0.66 0.66 1.32 1 2 C1.99 2.33 2.98 2.66 4 3 C2.2984375 3.433125 2.2984375 3.433125 0.5625 3.875 C-0.613125 4.24625 -1.78875 4.6175 -3 5 C-3.33 5.66 -3.66 6.32 -4 7 C-4.66 6.67 -5.32 6.34 -6 6 C-4 4 -2 2 0 0 Z " fill="#3880D4" transform="translate(128,89)"/>
<path d="M0 0 C3.0625 0.1875 3.0625 0.1875 5.0625 2.1875 C2.14767222 2.99717438 0.60136783 3.40595993 -2.25 2.25 C-2.806875 1.899375 -3.36375 1.54875 -3.9375 1.1875 C-2.9375 0.1875 -2.9375 0.1875 0 0 Z " fill="#2C6ED6" transform="translate(151.9375,155.8125)"/>
<path d="M0 0 C2.31 1.98 4.62 3.96 7 6 C6.01 6.33 5.02 6.66 4 7 C0 2.25 0 2.25 0 0 Z " fill="#3E74B5" transform="translate(55,92)"/>
<path d="M0 0 C0.33 0.66 0.66 1.32 1 2 C-1.3125 4.5 -1.3125 4.5 -4 7 C-4.99 7 -5.98 7 -7 7 C-4.69 4.69 -2.38 2.38 0 0 Z " fill="#417ABC" transform="translate(122,93)"/>
<path d="M0 0 C0.33 0.66 0.66 1.32 1 2 C-0.65 3.65 -2.3 5.3 -4 7 C-3.6875 4.625 -3.6875 4.625 -3 2 C-2.01 1.34 -1.02 0.68 0 0 Z " fill="#3A7BC7" transform="translate(147,65)"/>
</svg>
